<svg width="16" height="16" viewBox="0 0 16 16" fill="none" xmlns="http://www.w3.org/2000/svg">
<path d="M0 8C0 3.58172 3.58172 0 8 0C12.4183 0 16 3.58172 16 8C16 12.4183 12.4183 16 8 16H0V8Z" fill="url(#paint0_linear_1172_10088)"/>
<path fill-rule="evenodd" clip-rule="evenodd" d="M3.62118 7.91555C5.95334 6.89946 7.50848 6.22959 8.2866 5.90595C10.5083 4.98187 10.9699 4.82135 11.2708 4.81605C11.337 4.81488 11.485 4.83129 11.5808 4.90906C11.6618 4.97473 11.684 5.06345 11.6947 5.12571C11.7053 5.18798 11.7186 5.32982 11.7081 5.44064C11.5877 6.70563 11.0667 9.77543 10.8017 11.1922C10.6896 11.7917 10.4687 11.9928 10.255 12.0124C9.7904 12.0552 9.43762 11.7054 8.98766 11.4104C8.28356 10.9489 7.88578 10.6616 7.20233 10.2112C6.41248 9.69069 6.9245 9.40462 7.37464 8.93709C7.49244 8.81474 9.53937 6.9529 9.57898 6.784C9.58394 6.76288 9.58854 6.68414 9.54176 6.64256C9.49498 6.60098 9.42595 6.6152 9.37612 6.62651C9.30551 6.64254 8.18069 7.386 6.00168 8.85689C5.6824 9.07613 5.39321 9.18295 5.13411 9.17735C4.84847 9.17118 4.29901 9.01585 3.89054 8.88307C3.38954 8.72022 2.99136 8.63411 3.02603 8.35753C3.04409 8.21348 3.24247 8.06615 3.62118 7.91555Z" fill="white"/>
<defs>
<linearGradient id="paint0_linear_1172_10088" x1="8" y1="0" x2="8" y2="15.8813" gradientUnits="userSpaceOnUse">
<stop stop-color="#2AABEE"/>
<stop offset="1" stop-color="#229ED9"/>
</linearGradient>
</defs>
</svg>
