<svg width="90" height="50" viewBox="0 0 90 50" fill="none" xmlns="http://www.w3.org/2000/svg">
<path fill-rule="evenodd" clip-rule="evenodd" d="M45 0H41.7742V6.55737H38.5484L38.5484 13.1147H35.3226V25.4099H32.0969V22.1311H29.6776V34.4262H23.226V43.4426H29.6776V46.7213H32.0969V43.4426H35.3226V40.1639H38.5484L38.5484 36.8852H41.7742V40.1639H38.5484V50H41.7742V46.7213H45H48.2258V50H51.4516V40.1639H48.2258V36.8852H51.4516L51.4516 40.1639H54.6774V43.4426H57.9032V25.4099H54.6774V13.1147H51.4516L51.4516 6.55737H48.2258V0H45ZM48.2258 25.4098V15.5738H45H41.7742V25.4098H45H48.2258ZM23.2259 31.1475H20V46.7213H23.2259V31.1475ZM66.7741 31.1476H70V46.7213H66.7741V43.4426H60.3227V46.7213H57.9033V22.1311H60.3227V34.4262H66.7741V31.1476Z" fill="#FFF600"/>
<path fill-rule="evenodd" clip-rule="evenodd" d="M21.2714 2.34184V0H23.628V2.34184H26V4.66837H23.628V6.9949H21.2714V4.66837H18.9148V2.34184H21.2714ZM11.814 16.3316H14.1861V18.6582H11.814V16.3316ZM14.1861 9.33674H11.814V11.6633H14.1861V9.33674ZM4.72881 4.66835H7.1009V6.99488H4.72881V4.66835ZM4.72871 18.6582H2.37212V21H4.72871V18.6582ZM2.37212 6.99489H4.72871V9.33673H2.37212V6.99489ZM4.72871 2.34184H2.37212V4.66835H4.57764e-05V6.99488H2.37214V4.66838H4.72871V2.34184Z" fill="#00FFD3"/>
<path fill-rule="evenodd" clip-rule="evenodd" d="M68.7287 2.34184V0H66.3721V2.34184H64V4.66837H66.3721V6.9949H68.7287V4.66837H71.0853V2.34184H68.7287ZM78.1861 16.3316H75.814V18.6582H78.1861V16.3316ZM75.814 9.33674H78.1861V11.6633H75.814V9.33674ZM85.2713 4.66835H82.8992V6.99488H85.2713V4.66835ZM85.2714 18.6582H87.628V21H85.2714V18.6582ZM87.628 6.99489H85.2714V9.33673H87.628V6.99489ZM85.2714 2.34184H87.628V4.66835H90V6.99488H87.628V4.66838H85.2714V2.34184Z" fill="#00FFD3"/>
</svg>
