<svg width="42" height="32" viewBox="0 0 42 32" fill="none" xmlns="http://www.w3.org/2000/svg">
<path d="M22.0968 22.7486H27.6745C27.7559 22.7486 27.8257 22.82 27.8257 22.9035C27.8257 22.927 27.8139 22.9513 27.8023 22.9749L23.0983 31.3101C23.0749 31.3575 23.0284 31.3815 22.9701 31.3815H11.6641C11.5827 31.3815 11.5244 31.3219 11.5244 31.2387C11.5244 31.2148 11.5244 31.1909 11.5359 31.1674L18.0915 19.5575C18.1145 19.5097 18.1613 19.474 18.2196 19.474H29.5256C29.607 19.474 29.6772 19.5454 29.6772 19.6289C29.6772 19.6524 29.6653 19.6767 29.6538 19.7002L28.14 22.3797C28.117 22.4271 28.0702 22.4507 28.0118 22.4507H22.2714C22.19 22.4507 22.0852 22.5224 22.0384 22.6055C21.992 22.689 22.0154 22.7486 22.0968 22.7486ZM21.7011 27.0709C21.7825 27.0709 21.8876 26.9996 21.9341 26.9161C21.9805 26.8447 21.9456 26.7733 21.8638 26.7733H20.2223C20.1409 26.7733 20.0826 26.702 20.0826 26.6185C20.0826 26.5946 20.0826 26.571 20.106 26.5471L21.0722 24.8322C21.1186 24.7612 21.0837 24.6894 21.0024 24.6894C20.921 24.6894 20.8278 24.7612 20.7813 24.8322L19.7215 26.702C19.6985 26.7377 19.6517 26.7733 19.6052 26.7733H17.7887C17.707 26.7733 17.6137 26.8447 17.5673 26.9161C17.5209 26.9996 17.5443 27.0709 17.6256 27.0709H19.2676C19.3489 27.0709 19.4072 27.1427 19.4072 27.2258C19.4072 27.2497 19.4072 27.2733 19.3953 27.2975L18.4288 29C18.3823 29.0835 18.4057 29.1548 18.4871 29.1548C18.5688 29.1548 18.6736 29.0835 18.72 29L19.7679 27.1427C19.7917 27.1066 19.8382 27.0709 19.8961 27.0709H21.7011ZM30.315 19.5575C30.3384 19.5097 30.3849 19.474 30.4432 19.474H41.7496C41.8309 19.474 41.9008 19.5454 41.9008 19.6289C41.9008 19.6524 41.8893 19.6767 41.8774 19.7002L35.3218 31.3101C35.2988 31.3575 35.2524 31.3815 35.1941 31.3815H23.8877C23.8063 31.3815 23.7361 31.3219 23.7361 31.2387C23.7361 31.2148 23.748 31.1909 23.7599 31.1674L30.315 19.5575ZM35.4964 25.5826C35.5782 25.5826 35.6829 25.5112 35.7294 25.4277C35.7762 25.3564 35.7531 25.285 35.671 25.285H33.2962C33.226 25.285 33.1565 25.2136 33.1565 25.1301C33.1565 25.1062 33.1676 25.0823 33.1795 25.0588L34.5651 22.6055C34.6119 22.5224 34.5767 22.4507 34.4953 22.4507C34.4255 22.4507 34.3207 22.5224 34.2739 22.6055L32.7954 25.2136C32.772 25.2489 32.7256 25.285 32.6788 25.285H30.1404C30.0591 25.285 29.9543 25.3564 29.9075 25.4277C29.8611 25.5112 29.8841 25.5826 29.9658 25.5826H32.3411C32.4228 25.5826 32.4808 25.654 32.4808 25.7375C32.4808 25.761 32.4808 25.7849 32.4692 25.8088L31.0717 28.2617C31.0253 28.3448 31.0606 28.4044 31.1419 28.4044C31.2233 28.4044 31.3165 28.3448 31.363 28.2617L32.8418 25.654C32.8653 25.6183 32.9117 25.5826 32.97 25.5826H35.4964Z" fill="#FFCF1B"/>
<path d="M15.494 14.4561H20.629C20.7103 14.4561 20.7802 14.5278 20.7802 14.611C20.7802 14.6349 20.7686 14.6588 20.7568 14.6827L18.4049 18.8501C18.3815 18.8976 18.3347 18.9215 18.2768 18.9215H6.97073C6.88901 18.9215 6.83105 18.8619 6.83105 18.7788C6.83105 18.7549 6.83106 18.7309 6.84257 18.7074L10.7082 11.8605C10.7316 11.8127 10.778 11.777 10.8364 11.777H16.4253C16.5066 11.777 16.6118 11.7174 16.6582 11.6343L16.7396 11.4794L18.172 8.95484C18.2184 8.87171 18.195 8.79997 18.1137 8.79997C18.0323 8.79997 17.9272 8.87171 17.8808 8.95484L16.5301 11.3363C16.4836 11.4198 16.3904 11.4794 16.309 11.4794H11.1737C11.0923 11.4794 11.0228 11.4198 11.0228 11.3363C11.0228 11.3128 11.0344 11.2889 11.0459 11.2653L13.3981 7.09755C13.4211 7.04972 13.4679 7.01404 13.5263 7.01404H24.8323C24.9136 7.01404 24.9835 7.0854 24.9835 7.16891C24.9835 7.19244 24.972 7.21674 24.9604 7.24027L21.0948 14.0871C21.071 14.1346 21.0246 14.1585 20.9666 14.1585H15.3773C15.296 14.1585 15.1909 14.2299 15.1444 14.3134L15.0631 14.4561L13.631 16.9925C13.5846 17.0756 13.6191 17.1352 13.689 17.1352C13.7703 17.1352 13.8755 17.0756 13.9219 16.9925L15.2726 14.611C15.319 14.5278 15.4123 14.4561 15.494 14.4561ZM25.6217 7.09755C25.6451 7.04972 25.6915 7.01404 25.7498 7.01404H37.0562C37.1376 7.01404 37.2074 7.0854 37.2074 7.16891C37.2074 7.19244 37.1959 7.21674 37.184 7.24027L30.6285 18.8501C30.6051 18.8976 30.5587 18.9215 30.5007 18.9215H19.1943C19.113 18.9215 19.0427 18.8619 19.0427 18.7788C19.0427 18.7549 19.0546 18.7309 19.0665 18.7074L25.6217 7.09755ZM30.8031 13.1226C30.8848 13.1226 30.9896 13.0513 31.036 12.9678C31.0828 12.8964 31.0594 12.825 30.9777 12.825H28.6024C28.5326 12.825 28.4628 12.7537 28.4628 12.6702C28.4628 12.6463 28.4743 12.6223 28.4862 12.5988L29.8718 10.1456C29.9182 10.0625 29.8833 9.99071 29.8019 9.99071C29.7321 9.99071 29.6274 10.0625 29.5805 10.1456L28.1017 12.7537C28.0786 12.789 28.0322 12.825 27.9854 12.825H25.4471C25.3654 12.825 25.261 12.8964 25.2142 12.9678C25.1677 13.0513 25.1908 13.1226 25.2721 13.1226H27.6477C27.7295 13.1226 27.7874 13.194 27.7874 13.2775C27.7874 13.301 27.7874 13.3249 27.7759 13.3489L26.3784 15.8017C26.3319 15.8848 26.3669 15.9444 26.4486 15.9444C26.5299 15.9444 26.6232 15.8848 26.6696 15.8017L28.1485 13.194C28.1719 13.1583 28.2183 13.1226 28.2766 13.1226H30.8031Z" fill="#FFCF1B"/>
<path d="M6.97366 3.63399H8.24247C8.28351 3.63399 8.31874 3.66922 8.31874 3.71045C8.31874 3.72225 8.31293 3.73406 8.30693 3.74568L6.73868 6.4615C6.72706 6.48511 6.70364 6.49673 6.67421 6.49673H3.98406C3.94302 6.49673 3.9076 6.4675 3.9076 6.42627C3.9076 6.41466 3.9136 6.40266 3.91941 6.39104L5.55232 3.55754C5.57574 3.52231 5.55832 3.48708 5.5169 3.48708C5.47586 3.48708 5.42883 3.52231 5.40541 3.55754L3.72546 6.4615C3.71384 6.48511 3.69042 6.49673 3.66681 6.49673H0.970847C0.929809 6.49673 0.900391 6.4675 0.900391 6.42627C0.900391 6.41466 0.900389 6.40266 0.906198 6.39104L4.21305 0.659569C4.22486 0.636145 4.24847 0.61853 4.2777 0.61853H9.98088C10.0221 0.61853 10.0573 0.65376 10.0573 0.694986C10.0573 0.706604 10.0515 0.718409 10.0455 0.730027L8.47746 3.45185C8.46565 3.46947 8.44204 3.48708 8.41262 3.48708H7.06173C7.0207 3.48708 6.96785 3.52231 6.94424 3.55754C6.92082 3.59876 6.93262 3.63399 6.97366 3.63399ZM6.45684 1.98816L6.53911 1.84124C6.56253 1.80002 6.55072 1.76479 6.50969 1.76479C6.46865 1.76479 6.41562 1.80002 6.39219 1.84124L6.30993 1.98816C6.28651 2.02919 6.29813 2.05861 6.33935 2.05861C6.38058 2.05861 6.43342 2.02919 6.45684 1.98816ZM13.4511 0.61853H16.1471C16.1881 0.61853 16.2236 0.65376 16.2236 0.694986C16.2236 0.706604 16.2176 0.718409 16.2116 0.730027L12.9049 6.4615C12.8931 6.48511 12.8697 6.49673 12.8402 6.49673H7.13688C7.09584 6.49673 7.06642 6.4675 7.06642 6.42627C7.06642 6.41466 7.06642 6.40266 7.07242 6.39104L10.3793 0.659569C10.3911 0.636145 10.4145 0.61853 10.4437 0.61853H13.1399C13.1751 0.61853 13.2103 0.65376 13.2103 0.694986C13.2103 0.706604 13.2043 0.718409 13.1987 0.730027L10.7612 4.95677C10.7376 4.99781 10.7552 5.02723 10.7962 5.02723C10.8372 5.02723 10.8843 4.99781 10.9079 4.95677L13.3923 0.659569C13.4043 0.636145 13.4277 0.61853 13.4511 0.61853ZM20.6041 0.61853H22.3131C22.3543 0.61853 22.3896 0.65376 22.3896 0.694986C22.3896 0.706604 22.3836 0.718409 22.378 0.730027L19.0709 6.4615C19.0593 6.48511 19.0357 6.49673 19.0063 6.49673H15.3295C15.2885 6.49673 15.2591 6.4675 15.2591 6.42627C15.2591 6.41466 15.2591 6.40266 15.2649 6.39104L17.7024 2.16449C17.726 2.12345 17.7142 2.08803 17.673 2.08803C17.632 2.08803 17.5791 2.12345 17.5555 2.16449L15.0769 6.4615C15.0653 6.48511 15.0417 6.49673 15.0123 6.49673H13.3031C13.2621 6.49673 13.2326 6.4675 13.2326 6.42627C13.2326 6.41466 13.2326 6.40266 13.2384 6.39104L16.5453 0.659569C16.5571 0.636145 16.5807 0.61853 16.6099 0.61853H20.2869C20.3279 0.61853 20.3632 0.65376 20.3632 0.694986C20.3632 0.706604 20.3572 0.718409 20.3515 0.730027L17.914 4.95677C17.8904 4.99781 17.9022 5.02723 17.9432 5.02723C17.9844 5.02723 18.0371 4.99781 18.0607 4.95677L20.5395 0.659569C20.5511 0.636145 20.5747 0.61853 20.6041 0.61853Z" fill="#994BFF"/>
<path d="M26.7824 0.657654H28.4916C28.5328 0.657654 28.5679 0.692884 28.5679 0.734109C28.5679 0.745727 28.5621 0.757532 28.5563 0.76915L25.2494 6.50063C25.2376 6.52424 25.2142 6.53586 25.1848 6.53586H21.5078C21.4668 6.53586 21.4374 6.50662 21.4374 6.4654C21.4374 6.45378 21.4374 6.44179 21.4434 6.43017L23.8809 2.20361C23.9043 2.16257 23.8927 2.12716 23.8515 2.12716C23.8103 2.12716 23.7574 2.16257 23.734 2.20361L21.2552 6.50063C21.2436 6.52424 21.2202 6.53586 21.1908 6.53586H19.4816C19.4404 6.53586 19.4111 6.50662 19.4111 6.4654C19.4111 6.45378 19.4111 6.44179 19.4169 6.43017L22.7236 0.698692C22.7356 0.675269 22.759 0.657654 22.7884 0.657654H26.4654C26.5064 0.657654 26.5415 0.692884 26.5415 0.734109C26.5415 0.745727 26.5358 0.757532 26.5299 0.76915L24.0923 4.99589C24.0689 5.03693 24.0805 5.06635 24.1217 5.06635C24.1628 5.06635 24.2158 5.03693 24.2392 4.99589L26.7178 0.698692C26.7296 0.675269 26.753 0.657654 26.7824 0.657654ZM29.6592 4.58439H32.3964C32.4375 4.58439 32.4669 4.61943 32.4669 4.66084C32.4669 4.67246 32.4669 4.68427 32.4551 4.69589L31.4156 6.50063C31.4038 6.52424 31.3802 6.53586 31.3508 6.53586H25.6478C25.6064 6.53586 25.5772 6.50662 25.5772 6.4654C25.5772 6.45378 25.5772 6.44179 25.583 6.43017L28.89 0.698692C28.9016 0.675269 28.9251 0.657654 28.9545 0.657654H34.6578C34.6989 0.657654 34.7341 0.692884 34.7341 0.734109C34.7341 0.745727 34.7283 0.757532 34.7225 0.76915L33.6769 2.5797C33.6652 2.5975 33.6416 2.61512 33.6182 2.61512H30.7929C30.7519 2.61512 30.7049 2.65035 30.6814 2.68558C30.6578 2.7268 30.6696 2.76203 30.7107 2.76203H33.4477C33.4831 2.76203 33.5183 2.79726 33.5183 2.83849C33.5183 2.85029 33.5123 2.86191 33.5065 2.87372L32.6254 4.40206C32.6138 4.41967 32.5904 4.43748 32.5668 4.43748H29.7415C29.7005 4.43748 29.6534 4.47252 29.6298 4.50793C29.6064 4.54897 29.6182 4.58439 29.6592 4.58439ZM37.8167 3.67312H39.0853C39.1265 3.67312 39.1617 3.70834 39.1617 3.74957C39.1617 3.76138 39.1557 3.77318 39.1501 3.7848L37.5817 6.50063C37.5699 6.52424 37.5464 6.53586 37.5172 6.53586H34.8271C34.7858 6.53586 34.7506 6.50662 34.7506 6.4654C34.7506 6.45378 34.7566 6.44179 34.7622 6.43017L36.3951 3.59666C36.4187 3.56143 36.4011 3.5262 36.3601 3.5262C36.3189 3.5262 36.272 3.56143 36.2484 3.59666L34.5686 6.50063C34.5566 6.52424 34.5332 6.53586 34.5098 6.53586H31.8138C31.7726 6.53586 31.7434 6.50662 31.7434 6.4654C31.7434 6.45378 31.7434 6.44179 31.7492 6.43017L35.056 0.698692C35.0678 0.675269 35.0913 0.657654 35.1207 0.657654H40.8241C40.8651 0.657654 40.9001 0.692884 40.9001 0.734109C40.9001 0.745727 40.8945 0.757532 40.8885 0.76915L39.3203 3.49097C39.3086 3.50859 39.285 3.5262 39.2556 3.5262H37.9047C37.8635 3.5262 37.8108 3.56143 37.7872 3.59666C37.7638 3.63789 37.7754 3.67312 37.8167 3.67312ZM37.2998 2.02728L37.3819 1.88037C37.4053 1.83914 37.3937 1.80391 37.3527 1.80391C37.3115 1.80391 37.2586 1.83914 37.2352 1.88037L37.1529 2.02728C37.1293 2.06832 37.1411 2.09774 37.1823 2.09774C37.2234 2.09774 37.2762 2.06832 37.2998 2.02728Z" fill="#994BFF"/>
</svg>
