<svg width="25" height="24" viewBox="0 0 25 24" fill="none" xmlns="http://www.w3.org/2000/svg">
<g clip-path="url(#clip0_1168_3222)">
<path fill-rule="evenodd" clip-rule="evenodd" d="M4.70752 6.92334C3.92051 7.01295 3.19034 7.50453 2.88143 8.30812C2.28405 9.86216 1.75807 11.9539 1.38607 13.9114C1.01582 15.8597 0.782194 17.7586 0.800845 18.9224C0.82191 20.237 1.02305 21.4555 1.67536 22.3538C2.37502 23.3174 3.46175 23.7456 4.84039 23.7456C4.97356 23.7456 5.10489 23.7146 5.22397 23.6549C6.26063 23.1362 7.1405 22.1405 7.87586 21.2294C8.09771 20.9544 8.30719 20.6866 8.50826 20.4295C8.93641 19.8819 9.32649 19.3831 9.71591 18.9699H15.8694C16.2211 19.3664 16.5762 19.8459 16.968 20.375C17.1678 20.6446 17.3772 20.9275 17.6005 21.2186C18.3016 22.1328 19.1559 23.1473 20.1705 23.6549C20.2895 23.7146 20.4208 23.7456 20.554 23.7456C21.9296 23.7456 23.0473 23.3211 23.7968 22.3863C24.5137 21.4923 24.7772 20.2707 24.7988 18.9224C24.8173 17.7675 24.5874 15.8891 24.2223 13.9577C23.8554 12.0167 23.3365 9.93985 22.7464 8.38237C22.4329 7.5548 21.6935 7.04317 20.8887 6.9316C20.4952 8.5264 19.0552 9.70902 17.3389 9.70902H8.25938C6.54011 9.70902 5.09802 8.52232 4.70752 6.92334ZM10.4141 14.7636C10.4141 16.0008 9.41119 17.0038 8.17401 17.0038C6.93681 17.0038 5.93387 16.0008 5.93387 14.7636C5.93387 13.5264 6.93681 12.5235 8.17401 12.5235C9.41119 12.5235 10.4141 13.5264 10.4141 14.7636ZM17.4257 17.0038C18.6628 17.0038 19.6659 16.0008 19.6659 14.7636C19.6659 13.5264 18.6628 12.5235 17.4257 12.5235C16.1885 12.5235 15.1855 13.5264 15.1855 14.7636C15.1855 16.0008 16.1885 17.0038 17.4257 17.0038Z" fill="white"/>
<path fill-rule="evenodd" clip-rule="evenodd" d="M6.74609 3.86772V3.90899V6.05292C6.74609 6.13128 6.75204 6.20824 6.76353 6.28338C6.76843 6.31545 6.77433 6.34718 6.78122 6.37855C6.82355 6.57158 6.90274 6.75081 7.01104 6.90849C7.28378 7.30569 7.74112 7.56618 8.25935 7.56618H9.54182L16.0578 7.56611L17.3388 7.56618C17.857 7.56618 18.3145 7.30569 18.5872 6.90849C18.7543 6.66511 18.8521 6.37041 18.8521 6.05286V2.20656C18.8521 2.18668 18.8507 2.16722 18.8483 2.14824C18.8443 2.11914 18.8377 2.09118 18.8284 2.06459C18.7471 1.83117 18.4717 1.70339 18.2318 1.8233L17.4652 2.20662L16.7461 2.56615L16.7092 2.5846L15.8255 3.02644L13.1021 0.302985C12.9347 0.135617 12.6634 0.135618 12.496 0.302985L9.77254 3.02644L8.88895 2.58463L8.85206 2.56619L8.13297 2.20663L7.36632 1.8233C7.08137 1.68083 6.74609 1.88803 6.74609 2.20663V3.06376V3.86772Z" fill="#FFCF1B"/>
</g>
<defs>
<clipPath id="clip0_1168_3222">
<rect width="24" height="24" fill="white" transform="translate(0.799805)"/>
</clipPath>
</defs>
</svg>
