<svg width="21" height="26" viewBox="0 0 21 26" fill="none" xmlns="http://www.w3.org/2000/svg">
<path d="M2.2002 3C2.2002 2.44771 2.64791 2 3.2002 2H17.2002C17.7525 2 18.2002 2.44772 18.2002 3V13H2.2002V3Z" fill="#00FFD3"/>
<path fill-rule="evenodd" clip-rule="evenodd" d="M2.2002 1H18.2002C18.7525 1 19.2002 1.44772 19.2002 2V14H1.2002V2C1.2002 1.44772 1.64791 1 2.2002 1ZM0.200195 2C0.200195 0.89543 1.09563 0 2.2002 0H18.2002C19.3048 0 20.2002 0.895431 20.2002 2V15V24C20.2002 25.1046 19.3048 26 18.2002 26H2.2002C1.09563 26 0.200195 25.1046 0.200195 24V15V2ZM6.40039 18C6.95268 18 7.40039 18.4477 7.40039 19V19.5H7.90039C8.45267 19.5 8.90039 19.9477 8.90039 20.5C8.90039 21.0523 8.45267 21.5 7.90039 21.5H7.40039V22C7.40039 22.5523 6.95268 23 6.40039 23C5.84811 23 5.40039 22.5523 5.40039 22V21.5H4.90039C4.34811 21.5 3.90039 21.0523 3.90039 20.5C3.90039 19.9477 4.34811 19.5 4.90039 19.5H5.40039V19C5.40039 18.4477 5.84811 18 6.40039 18ZM14.9004 22.5C16.005 22.5 16.9004 21.6046 16.9004 20.5C16.9004 19.3954 16.005 18.5 14.9004 18.5C13.7958 18.5 12.9004 19.3954 12.9004 20.5C12.9004 21.6046 13.7958 22.5 14.9004 22.5Z" fill="white"/>
</svg>
