<svg width="24" height="25" viewBox="0 0 24 25" fill="none" xmlns="http://www.w3.org/2000/svg">
<rect y="0.5" width="24" height="24" rx="12" fill="url(#paint0_linear_1168_2912)"/>
<path fill-rule="evenodd" clip-rule="evenodd" d="M6.82494 11.7976C10.0462 10.3716 12.1941 9.43139 13.2689 8.97715C16.3375 7.6802 16.9751 7.45491 17.3907 7.44747C17.4822 7.44583 17.6865 7.46885 17.8189 7.57801C17.9307 7.67018 17.9615 7.79469 17.9762 7.88208C17.9909 7.96947 18.0092 8.16854 17.9947 8.32409C17.8284 10.0995 17.1088 14.408 16.7428 16.3965C16.5879 17.2379 16.2829 17.52 15.9876 17.5476C15.346 17.6076 14.8587 17.1167 14.2372 16.7028C13.2647 16.055 12.7153 15.6517 11.7713 15.0196C10.6803 14.2891 11.3875 13.8876 12.0093 13.2314C12.172 13.0597 14.9992 10.4466 15.054 10.2095C15.0608 10.1799 15.0671 10.0693 15.0025 10.011C14.9379 9.95264 14.8426 9.97259 14.7738 9.98846C14.6762 10.011 13.1226 11.0544 10.1129 13.1188C9.67193 13.4265 9.2725 13.5765 8.91462 13.5686C8.52009 13.5599 7.76117 13.3419 7.19699 13.1556C6.505 12.927 5.95502 12.8062 6.00291 12.418C6.02785 12.2158 6.30186 12.009 6.82494 11.7976Z" fill="white"/>
<defs>
<linearGradient id="paint0_linear_1168_2912" x1="12" y1="0.5" x2="12" y2="24.5" gradientUnits="userSpaceOnUse">
<stop stop-color="#2AABEE"/>
<stop offset="1" stop-color="#229ED9"/>
</linearGradient>
</defs>
</svg>
