<svg width="16" height="14" viewBox="0 0 16 14" fill="none" xmlns="http://www.w3.org/2000/svg">
  <path fill-rule="evenodd" clip-rule="evenodd" d="M8 0.714355C8.18647 0.714355 8.3612 0.805338 8.46814 0.958093L12.0776 6.1144L15.0245 3.16744C15.1879 3.00401 15.4337 2.95512 15.6472 3.04357C15.8608 3.13201 16 3.34038 16 3.5715V11.0001C16 11.6062 15.7592 12.1876 15.3305 12.6163C14.9018 13.045 14.3205 13.2858 13.7143 13.2858H2.28571C1.67951 13.2858 1.09812 13.045 0.66947 12.6163C0.240816 12.1876 0 11.6062 0 11.0001V3.5715C0 3.34038 0.139224 3.13201 0.352752 3.04357C0.56628 2.95512 0.812062 3.00401 0.975489 3.16744L3.92246 6.1144L7.53186 0.958093C7.6388 0.805338 7.81353 0.714355 8 0.714355ZM6.7 8.23339C6.57018 8.40649 6.5 8.61702 6.5 8.83339V9.50006C6.5 10.0523 6.94772 10.5001 7.5 10.5001H8.5C9.05228 10.5001 9.5 10.0523 9.5 9.50006V8.83339C9.5 8.61702 9.42982 8.40649 9.3 8.23339L8.8 7.56673C8.4 7.03339 7.6 7.03339 7.2 7.56673L6.7 8.23339Z" fill="white"/>
</svg>