<svg width="16" height="16" viewBox="0 0 16 16" fill="none" xmlns="http://www.w3.org/2000/svg">
<path fillRule="evenodd" clipRule="evenodd" d="M0 1.71429C0 0.767512 0.767512 0 1.71429 0H9.71428C10.6611 0 11.4286 0.767512 11.4286 1.71429V3.92986C10.9684 4.29831 10.6639 4.83489 10.5893 5.42855H6.57143C5.15127 5.42855 4 6.57981 4 7.99998C4 9.42014 5.15127 10.5714 6.57143 10.5714H10.5893C10.6639 11.1651 10.9684 11.7017 11.4286 12.0702V14.2857C11.4286 15.2325 10.6611 16 9.71428 16H1.71429C0.767512 16 0 15.2325 0 14.2857V1.71429ZM12.5291 4.92241C12.2088 5.05509 12 5.36763 12 5.71431V6.85717H6.57143C5.94025 6.85717 5.42857 7.36885 5.42857 8.00002C5.42857 8.63121 5.94025 9.14288 6.57143 9.14288H12V10.2857C12 10.6324 12.2088 10.945 12.5291 11.0776C12.8494 11.2103 13.2181 11.137 13.4632 10.8918L15.7489 8.60612C16.0837 8.27138 16.0837 7.72866 15.7489 7.39393L13.4632 5.10822C13.2181 4.86307 12.8494 4.78975 12.5291 4.92241Z" fill="#FF6262"/>
</svg>
