<svg width="16" height="16" viewBox="0 0 16 16" fill="none" xmlns="http://www.w3.org/2000/svg">
<path fillRule="evenodd" clipRule="evenodd" d="M16 3.42856C16 2.79739 15.4883 2.28571 14.8571 2.28571C14.226 2.28571 13.7143 2.79739 13.7143 3.42856V6.28571C13.7143 7.54807 12.6909 8.57142 11.4286 8.57142H4.57143V6.28567C4.57143 6.05455 4.43223 5.84619 4.21863 5.75774C4.00514 5.66929 3.75931 5.71819 3.59589 5.88161L0.167315 9.31018C0.0602283 9.41734 0 9.56269 0 9.71424C0 9.8658 0.0602283 10.0111 0.167315 10.1183L3.59589 13.5468C3.75931 13.7103 4.00514 13.7592 4.21863 13.6707C4.43223 13.5823 4.57143 13.3739 4.57143 13.1428V10.8571H11.4286C13.9533 10.8571 16 8.81044 16 6.28571V3.42856Z" fill="#00FFD3"/>
</svg>
