<svg width="16" height="12" viewBox="0 0 16 12" fill="none" xmlns="http://www.w3.org/2000/svg">
<path fill-rule="evenodd" clip-rule="evenodd" d="M16 1.42856C16 0.797386 15.4883 0.285706 14.8571 0.285706C14.226 0.285706 13.7143 0.797386 13.7143 1.42856V4.28571C13.7143 5.54807 12.6909 6.57142 11.4286 6.57142L4.57143 6.57142V4.28567C4.57143 4.05455 4.43223 3.84619 4.21863 3.75774C4.00514 3.66929 3.75931 3.71819 3.59589 3.88161L0.167315 7.31018C0.0602283 7.41734 0 7.56269 0 7.71424C0 7.8658 0.0602283 8.01115 0.167315 8.1183L3.59589 11.5468C3.75931 11.7103 4.00514 11.7592 4.21863 11.6707C4.43223 11.5823 4.57143 11.3739 4.57143 11.1428V8.85713H11.4286C13.9533 8.85713 16 6.81044 16 4.28571V1.42856Z" fill="black"/>
</svg>
