<svg width="16" height="16" viewBox="0 0 16 16" fill="none" xmlns="http://www.w3.org/2000/svg">
<g clip-path="url(#clip0_121_38625)">
<path fillRule="evenodd" clipRule="evenodd" d="M9.14286 5.1429C9.14286 7.03644 7.60783 8.57147 5.71429 8.57147C3.82074 8.57147 2.28571 7.03644 2.28571 5.1429C2.28571 3.24935 3.82074 1.71432 5.71429 1.71432C7.60783 1.71432 9.14286 3.24935 9.14286 5.1429ZM5.71429 9.71429C2.55838 9.71429 0 12.2727 0 15.4286C0 15.7441 0.255838 16 0.571429 16H10.8571C11.1727 16 11.4286 15.7441 11.4286 15.4286C11.4286 12.2727 8.87019 9.71429 5.71429 9.71429ZM15.4287 16H12.7744C12.8283 15.819 12.8573 15.6271 12.8573 15.4286C12.8573 13.0959 11.7391 11.0244 10.0095 9.72085C10.1011 9.7165 10.1932 9.71429 10.2858 9.71429C13.4417 9.71429 16.0001 12.2727 16.0001 15.4286C16.0001 15.7441 15.7442 16 15.4287 16ZM10.2858 8.57147C9.94097 8.57147 9.60804 8.52055 9.29409 8.42585C10.0873 7.56135 10.5715 6.40867 10.5715 5.1429C10.5715 3.87713 10.0873 2.72444 9.29408 1.85994C9.60804 1.76523 9.94097 1.71432 10.2858 1.71432C12.1793 1.71432 13.7144 3.24935 13.7144 5.1429C13.7144 7.03644 12.1793 8.57147 10.2858 8.57147Z" fill="white"/>
</g>
<defs>
<clipPath id="clip0_121_38625">
<rect width="16" height="16" fill="white"/>
</clipPath>
</defs>
</svg>
