<svg width="48" height="48" viewBox="0 0 48 48" fill="none" xmlns="http://www.w3.org/2000/svg">
<g clip-path="url(#clip0_122_40151)">
<rect width="48" height="48" rx="16" fill="#020F1B"/>
<g filter="url(#filter0_f_122_40151)">
<path d="M5.48878 25.4036L13.9549 20.6512L22.4214 25.4036V34.8764L13.9549 39.6288L5.48878 34.8764V25.4036Z" stroke="#7F5CFF" stroke-width="3.6"/>
</g>
<path d="M5.16498 25.2142L13.9549 20.2801L22.7452 25.2142V35.0662L13.9549 40.0003L5.16498 35.0662V25.2142Z" stroke="#7F5CFF" stroke-width="1.8"/>
<path d="M8.55811 19.663L20.3861 13.2609L32.214 19.663V32.4317L20.3861 38.8341L8.55811 32.4317V19.663Z" stroke="#35E6CF" stroke-width="1.8"/>
<g filter="url(#filter1_f_122_40151)">
<path d="M9.46657 19.8561L20.9707 13.6293L32.4749 19.8561V32.2389L20.9707 38.4657L9.46657 32.2389V19.8561Z" stroke="#35E6CF" stroke-width="3.6"/>
</g>
<path d="M12.3794 15.5695L26.2326 8L40.0861 15.5695V30.6787L26.2326 38.2483L12.3794 30.6787V15.5695Z" stroke="#FF4DFF" stroke-width="1.8"/>
<g filter="url(#filter2_f_122_40151)">
<path d="M12.7032 15.7616L26.2326 8.36874L39.7623 15.7616V30.4866L26.2326 37.8794L12.7032 30.4866V15.7616Z" stroke="#FF4DFF" stroke-width="3.6"/>
</g>
<path d="M11.6163 33.9402H-1.24605V34.8174H13.0777L11.6163 33.9402Z" fill="#36E5CF"/>
<path d="M14.6727 26.9246H-0.440842V28.0234H14.6727V26.9246Z" fill="#ED6E13"/>
<path d="M12.1135 24.5859H-3V25.6847H12.1135V24.5859Z" fill="#FF4DFF"/>
<path d="M50.3656 17.5699H40.2642V18.6687H50.3656V17.5699Z" fill="#FF4DFF"/>
<path d="M20.3861 16.4006H26.2326L24.7711 15.2313H20.3861V16.4006Z" fill="#35E6CF"/>
<path d="M34.4177 16.9852H27.9865V17.5698H34.4177V16.9852Z" fill="#35E6CF"/>
<path d="M28.5712 29.2629H22.7247V30.4322H28.5712V29.2629Z" fill="#7F5CFF"/>
<path d="M9.27769 37.4484H4.01582V38.6177H11.0316L9.27769 37.4484Z" fill="#7F5DFF"/>
</g>
<defs>
<filter id="filter0_f_122_40151" x="-5.31122" y="9.58698" width="38.5326" height="41.106" filterUnits="userSpaceOnUse" color-interpolation-filters="sRGB">
<feFlood flood-opacity="0" result="BackgroundImageFix"/>
<feBlend mode="normal" in="SourceGraphic" in2="BackgroundImageFix" result="shape"/>
<feGaussianBlur stdDeviation="4.5" result="effect1_foregroundBlur_122_40151"/>
</filter>
<filter id="filter1_f_122_40151" x="-4.93344" y="-1.01745" width="51.8083" height="54.1299" filterUnits="userSpaceOnUse" color-interpolation-filters="sRGB">
<feFlood flood-opacity="0" result="BackgroundImageFix"/>
<feBlend mode="normal" in="SourceGraphic" in2="BackgroundImageFix" result="shape"/>
<feGaussianBlur stdDeviation="6.3" result="effect1_foregroundBlur_122_40151"/>
</filter>
<filter id="filter2_f_122_40151" x="1.9032" y="-2.68245" width="48.6591" height="51.6131" filterUnits="userSpaceOnUse" color-interpolation-filters="sRGB">
<feFlood flood-opacity="0" result="BackgroundImageFix"/>
<feBlend mode="normal" in="SourceGraphic" in2="BackgroundImageFix" result="shape"/>
<feGaussianBlur stdDeviation="4.5" result="effect1_foregroundBlur_122_40151"/>
</filter>
<clipPath id="clip0_122_40151">
<rect width="48" height="48" rx="16" fill="white"/>
</clipPath>
</defs>
</svg>
