<svg width="181" height="57" fill="none" xmlns="http://www.w3.org/2000/svg"><path d="M0 6.4 37.3 5l-1.8 12-7.3-1.5.3-2.8-17.1.3 23.5 9.5-2.5 16-20.5.4L6.8 25l7.5 1.6 1.7 4.8 9.6.4.8-6.4-22.5-8.2L0 6.4Zm52.3-1.9 3.4 7 5.8-.3L70.9 38l8-.1-8.5-27.5h7l3-6.9-28.1 1Z" fill="#1ED8C1"/><path d="m103.8 30.2-11.2.2-7-9.4 4.8-11 11-.4 6.5 10.9-4.1 9.7Zm.5-27.5-18.9.7-7.6 17.8L90 37.7l18.4-.3 7.5-17-11.6-17.7Z" fill="#1ED8C1"/><path d="m114.4 2.3-.3 7.9L127 26.5l-1 3.5-6.3.7 1.1-2.8-3.3-5-5.6 14.4 20.5-.4 2.7-10.7-13.8-17 10.7-.4-1.3 6.7 5.3 4.4 4.2-18.5-25.8 1Zm28.9-1L135.8 37l7.2-.2 2.8-12.2 8.1-.2-3.2 12h7.5l10-35.9-8.4.3-4.5 16.3-8.1.2L150.9 1l-7.6.3Zm28.5-1-10.2 36h8.2L181 0l-9.2.3Zm-127.5 26 2-12.6 6 14.3-8-1.7Zm5.1-21.7-8.7.4L36 38.6l8-.1 1-7.5 10.3 3.8.9 3.5 10-.2L49.4 4.6Z" fill="#1ED8C1"/><path d="m29 37.4-15.4-.2c-.5 0-1-.4-1.2-1l-3-7.1v-1.3c.4-.6 1-.8 1.6-.7l1.3.3c.5.1.9.5 1 .9l1.7 4.4c.1.2.2.3.4.3l11.5.3c.2 0 .4-.2.4-.4l.9-7.8-.3-.4-22.4-9c-.5-.2-.8-.6-.9-1L3.4 9.4v-.9c.2-.5.7-.8 1.3-.9l29.2-1.3A1.4 1.4 0 0 1 35.3 8l-1 6c0 .8-.8 1.3-1.6 1.2l-2.4-.4a.5.5 0 0 1 .2-1l2.4.3c.2 0 .4 0 .4-.3l1-6a.4.4 0 0 0-.4-.4L4.7 8.7l-.3.1v.3l1.2 5.3.3.3 22.4 9c.6.3 1 .9.9 1.5l-.8 7.8c-.1.8-.7 1.3-1.5 1.3L15.4 34c-.6 0-1.1-.3-1.3-.9l-1.8-4.4-.2-.3-1.3-.3-.4.2v.3l3 7.3c0 .1.1.2.3.2l15.3.2c.2 0 .4-.1.4-.3l2.7-11.5c0-.2 0-.4-.2-.4L8.7 13.9c-.6-.2-.9-1-.7-1.6.1-.7.6-1.2 1.2-1.2l20.8-.3c.3 0 .6.2.6.5s-.3.5-.6.5l-20.7.3c-.2 0-.3.3-.3.4 0 .1 0 .4.2.5l23.1 10c.6.3 1 1 .8 1.6l-2.7 11.6c-.1.6-.7 1-1.4 1Zm29.4 0c-.6 0-1.1-.3-1.3-1l-.7-2-.3-.2-13.4-4.6c-.6-.2-1-.8-1-1.4l.4-1c.4-.4 1-.6 1.5-.4l10.7 2.9c.2 0 .3-.1.3-.2 0 0 .2-.2.1-.3l-7.6-17.3c0-.2-.2-.3-.3-.3h-1.2c-.2 0-.4.1-.4.3l-1.6 12.4a.5.5 0 1 1-1-.1l1.6-12.4c0-.8.7-1.3 1.4-1.3h1.2c.6.1 1 .4 1.3 1l7.5 17.2c.3.5.2 1.1-.2 1.6-.3.4-.9.5-1.4.4l-10.7-2.9H43l-.2.3v.1c0 .2.1.4.3.4l13.4 4.6c.4.2.7.5.9 1l.7 2 .4.2 3.7-.5c.2 0 .3-.1.3-.2v-.3L47.8 7.2l-.3-.2-4.1.3c-.2 0-.4.1-.4.3l-4.4 28.1a.4.4 0 0 0 .4.5l2.7.1c.2 0 .3-.1.4-.3l.5-4.2c0-.3.3-.5.6-.5.2 0 .4.3.4.6l-.5 4.2c0 .7-.7 1.3-1.5 1.3l-2.7-.2a1.4 1.4 0 0 1-1.3-1.6L42 7.4c0-.6.6-1.1 1.3-1.2l4.1-.2c.6 0 1 .2 1.3.7L63.4 35c.3.6.2 1.4-.4 1.8a1 1 0 0 1-.7.3l-3.7.4h-.2Zm14.1-.8c-.6 0-1.2-.4-1.4-1l-8.5-25.5c0-.2-.2-.3-.4-.3l-5 .2c-.6 0-1.2-.4-1.4-1l-.3-.9c0-.2 0-.5.3-.6.3-.1.6 0 .7.3l.3.9.3.2 5.1-.2c.6 0 1.2.4 1.4 1l8.5 25.6.4.2 2.5-.1.2-.2V35l-7.6-24.7c-.2-.5 0-1 .3-1.5.3-.2.6-.4 1-.4l6.9-.4.3-.3.4-1.4a.4.4 0 0 0-.4-.5L56 6.7a.5.5 0 0 1-.5-.6c0-.3.2-.5.5-.5l20.2-1c.5 0 1 .3 1.3.8.2.3.2.7.1 1.1L77.1 8c-.1.6-.6 1-1.2 1l-7 .5-.3.1v.3l7.7 24.8c.1.5 0 1-.3 1.4-.3.3-.7.4-1 .5h-2.5Zm19.3-.1c-.5 0-.9-.2-1.1-.5l-9-11c-.2-.4-.4-.8-.3-1.1 0-.7.5-1.2 1-1.3l1.3-.3c.6-.1 1.1 0 1.5.5l7.2 9.3.3.1 11-.4c.1 0 .3 0 .3-.2l5.5-11.6v-.3l-7.3-11.2s-.2-.2-.3-.1l-12 .4c-.2 0-.3 0-.4.2l-4.8 10.5c-.2.4-.5.7-.8.8l-1.3.4c-.2 0-.5 0-.6-.3 0-.3.1-.7.4-.7l1.1-.4.3-.2 4.7-10.6c.3-.5.7-.8 1.3-.8l12-.4c.5 0 1 .2 1.3.6l7.3 11.2c.2.4.3 1 0 1.4L105 32c-.3.4-.7.8-1.3.8l-11 .4c-.4 0-.9-.2-1.2-.6l-7.2-9.2c0-.2-.2-.2-.3-.2l-1.3.3c-.2 0-.2.2-.3.3l.1.3 9 11.1.3.1L106 35c.1 0 .3-.1.3-.3l6.1-14.4V20L103 5.3l-.3-.2-15 .7c-.1 0-.2 0-.3.2L81 20.4c-.1.3-.4.4-.7.3a.5.5 0 0 1-.3-.7l6.6-14.5c.2-.5.6-.8 1.2-.8l15-.6c.4 0 .9.2 1.2.6l9.4 14.7c.2.4.3 1 0 1.4l-6 14.5c-.2.5-.7.8-1.3.8l-14.2.4Zm23.7-.7a1.4 1.4 0 0 1-1.3-2l2.4-6c.1-.3.4-.7.8-.8a1.4 1.4 0 0 1 1.8 1.8l-.7 2.1v.4l.4.1 8.2-.2.3-.3 1.3-4.5-.1-.3-13-16.3c-.3-.2-.4-.6-.4-.9V4.7c.1-.8.7-1.4 1.5-1.4l20.4-.7c.4 0 .8.2 1.1.6.3.3.4.8.3 1.2l-2.7 12.3a.5.5 0 1 1-1-.2l2.7-12.3a.4.4 0 0 0-.4-.5l-20.4.6c-.2 0-.4.2-.4.4v4.5l13.1 16.2c.3.4.4.9.3 1.3l-1.3 4.5c-.1.6-.7 1-1.3 1l-8.2.3a1.4 1.4 0 0 1-1.4-2l.8-2a.4.4 0 0 0-.5-.5s-.2 0-.2.2l-2.4 6c-.1.2 0 .4 0 .4s.1.2.3.2l14.5-.3c.2 0 .4-.1.4-.3l2-7.1v-.4L119 9.8a1.4 1.4 0 0 1 1.1-2.3l12.3-.5c.5 0 .9.2 1.2.5.3.3.4.8.3 1.2l-1.2 5.5c0 .1 0 .3.2.4l.8.6c.2.1.3.5.1.7-.1.2-.5.3-.7.1l-.8-.5c-.5-.4-.8-1-.6-1.5l1.1-5.5v-.3s-.2-.2-.3-.1l-12.4.5c-.2 0-.2.1-.3.2v.4L133.3 26c.3.3.3.8.2 1.3l-2 7c-.2.7-.7 1.1-1.3 1.1l-14.6.3Zm23.6-1.1c-.5 0-.9-.2-1.2-.6-.2-.3-.3-.7-.2-1.1l5.9-27.7a.5.5 0 1 1 1 .2l-5.9 27.7.1.4h2.1c.2 0 .3-.2.4-.4l2-9.6c.1-.7.7-1.1 1.4-1.1l10.3-.1c.3 0 .6 0 .8.2.5.4.8 1 .6 1.6l-2.5 8.8.1.3.3.1h1.9c.1 0 .3-.1.3-.3l8-29.7a.4.4 0 0 0-.3-.5h-2l-.3.4-4.6 15.5c-.1.6-.7 1-1.3 1l-10.3.4a1.4 1.4 0 0 1-1.4-1.8L147.6 4v-.3l-.4-.1H145a.5.5 0 0 1-.5-.6c0-.3.2-.5.5-.5h2.3c.3 0 .6 0 .9.3.5.3.7 1 .5 1.5l-3.3 14.4v.3l.4.1 10.3-.4c.1 0 .3 0 .3-.2L161 2.9c.2-.5.7-1 1.3-1h2c.4 0 .8.2 1 .5.4.4.5.8.4 1.3l-8 29.7c-.2.6-.8 1-1.4 1h-1.9c-.4.1-.8-.1-1.1-.5-.3-.3-.4-.8-.3-1.2l2.5-8.8a.4.4 0 0 0-.4-.5l-10.3.1c-.2 0-.3.2-.4.3l-2 9.6c-.1.7-.6 1.1-1.3 1.2l-1.8.1h-.1Zm25.9.6a1.4 1.4 0 0 1-1.4-1.9l8.8-28.8a.5.5 0 1 1 1 .3l-8.8 28.8v.4l.3.1h2.5l.3-.3 9.7-31v-.4l-.4-.1h-3a.5.5 0 0 1-.6-.5c0-.3.2-.5.5-.5h3.1c.5-.1.9.1 1.2.5.2.3.3.8.2 1.3l-9.7 31c-.2.6-.7 1-1.3 1H165Z" fill="#5CFFE7"/><path d="M35.8 51.9a6 6 0 0 1-6-5.6l-.6-8.9c0-.8.6-1.5 1.4-1.6.8 0 1.6.6 1.6 1.4l.6 9a3 3 0 0 0 6-.4l-.3-6.3c0-.9.6-1.6 1.5-1.6.8 0 1.5.6 1.5 1.4l.3 6.4a6 6 0 0 1-6 6.2Zm21.1-.9c-.5 0-.9-.2-1.2-.5l-9.3-8.1.3 6.6c0 .8-.6 1.5-1.4 1.5-.8 0-1.5-.6-1.6-1.4l-.3-9.2c0-.6.2-1.2.7-1.6a2 2 0 0 1 2.3 0l9.3 8.2-.2-8c0-.8.6-1.4 1.5-1.5.8 0 1.5.7 1.5 1.5l.2 10.5a1.8 1.8 0 0 1-1.8 2Zm4.1-2-.5-10.6c0-.8.6-1.5 1.4-1.6.9 0 1.5.6 1.6 1.5l.4 10.6c0 .8-.6 1.5-1.4 1.6-.8 0-1.5-.6-1.5-1.5Zm11.1 1.6c-.8 0-1.7-.4-2.1-1.2v-.1l-5.2-10.5c-.4-.7 0-1.6.7-2 .7-.3 1.6 0 2 .7L72 47l3.2-9.3a1.5 1.5 0 1 1 2.8 1l-3.7 10.6a2.5 2.5 0 0 1-2.3 1.4Zm7.4-12.5c0-.8.6-1.5 1.5-1.5l9-.3c.8 0 1.5.7 1.6 1.5 0 .8-.7 1.5-1.5 1.5l-9 .3c-.9 0-1.6-.6-1.6-1.5Zm0 4.9c0-.8.6-1.5 1.5-1.6l9-.2c.8 0 1.5.6 1.6 1.4 0 .9-.7 1.5-1.5 1.6l-9 .2c-.9 0-1.6-.6-1.6-1.4Zm0 5c0-.9.6-1.6 1.5-1.6l9-.3c.8 0 1.5.7 1.6 1.5 0 .8-.7 1.5-1.5 1.5l-9 .3c-.9 0-1.6-.6-1.6-1.5ZM131 35.8c0-.8.7-1.5 1.5-1.5l14.5-.4c.8 0 1.5.6 1.5 1.4 0 .8-.6 1.5-1.4 1.5l-14.5.5c-.8 0-1.5-.6-1.5-1.5Zm0 4.9c0-.8.7-1.5 1.5-1.6l15.4-.4c.8 0 1.5.6 1.5 1.4 0 .9-.6 1.6-1.5 1.6l-15.3.4c-.8 0-1.5-.6-1.5-1.4Zm0 4.9c0-.8.7-1.5 1.5-1.5l16.2-.5c.8 0 1.5.6 1.5 1.4 0 .9-.6 1.6-1.4 1.6l-16.2.5c-.8 0-1.5-.6-1.5-1.5Zm-18.8 2.8c-.4.6-1.3.9-2 .6l-11.4-5.8A2 2 0 0 1 98 42c-.1-1 .6-1.7 1.4-1.7l7.8-.4c.3 0 .4-.2.5-.3a.7.7 0 0 0-.5-1.2l-10.3.4.2 8c0 .9-.6 1.6-1.4 1.6-.8 0-1.5-.6-1.6-1.4l-.2-8.3a3 3 0 0 1 2.7-2.9l10.5-.4a3.7 3.7 0 1 1 .1 7.5l-3.6-.3 7.9 3.7c.8.4 1 1.3.7 2Zm.9-1.9c0-.9.6-1.6 1.5-1.6l10.4-.5c.3 0 .5 0 .7-.3a1 1 0 0 0 0-1.3 1 1 0 0 0-.8-.3l-7.9.5a4 4 0 0 1-.4-7.9l9.5-.2c.8 0 1.5.6 1.5 1.4 0 .8-.6 1.5-1.4 1.6l-9.5.2a1 1 0 0 0 .1 1.9l8-.4a4 4 0 0 1 4.1 3.8 4 4 0 0 1-3.9 4l-10.3.5c-.8 0-1.5-.6-1.6-1.4Z" fill="#FF4DFF"/><path d="M85.5 52.4a.7.7 0 0 1-.7-.7v-3.1c0-.4.3-.7.7-.7.4 0 .7.3.7.7v3c0 .5-.3.8-.7.8Zm-35.2-4.9a.7.7 0 0 1-.6-.7v-3c0-.5.3-.8.6-.8.4 0 .7.3.7.7v3c0 .5-.3.8-.7.8Zm-15.7 5.9a.7.7 0 0 1-.7-.7v-3c0-.4.4-.7.7-.7.4 0 .7.3.7.7v3c0 .4-.3.7-.7.7Zm98.8-3.9a.7.7 0 0 1-.7-.7v-3c0-.4.3-.8.7-.8.4 0 .7.4.7.7v3.1c0 .4-.3.7-.7.7Zm-17.9 6.8a.7.7 0 0 1-.6-.7V48c0-.4.3-.7.6-.7.4 0 .7.3.7.7v7.6c0 .4-.3.7-.7.7Z" fill="#FF4DFF"/></svg>