<svg width="28" height="28" viewBox="0 0 28 28" fill="none" xmlns="http://www.w3.org/2000/svg">
<rect x="0.5" y="0.5" width="27" height="27" rx="8" fill="#282B2C"/>
<g clip-path="url(#clip0_1172_6271)">
<path fill-rule="evenodd" clip-rule="evenodd" d="M6.63508 6.63508C6.69872 6.57146 6.78502 6.53571 6.875 6.53571H8.91071C9.47286 6.53571 9.92857 6.08 9.92857 5.51786C9.92857 4.95571 9.47286 4.5 8.91071 4.5H6.875C6.24511 4.5 5.64102 4.75022 5.19562 5.19562C4.75022 5.64102 4.5 6.24511 4.5 6.875V8.91071C4.5 9.47286 4.95571 9.92857 5.51786 9.92857C6.08 9.92857 6.53571 9.47286 6.53571 8.91071V6.875C6.53571 6.78502 6.57146 6.69872 6.63508 6.63508ZM23.5 19.0893C23.5 18.5272 23.0443 18.0714 22.4821 18.0714C21.92 18.0714 21.4643 18.5272 21.4643 19.0893V21.125C21.4643 21.215 21.4286 21.3013 21.3649 21.3649C21.3013 21.4286 21.215 21.4643 21.125 21.4643H19.0893C18.5272 21.4643 18.0714 21.92 18.0714 22.4821C18.0714 23.0443 18.5272 23.5 19.0893 23.5H21.125C21.7548 23.5 22.3589 23.2497 22.8043 22.8043C23.2497 22.3589 23.5 21.7548 23.5 21.125V19.0893ZM5.51786 18.0714C6.08 18.0714 6.53571 18.5272 6.53571 19.0893V21.125C6.53571 21.215 6.57146 21.3013 6.63508 21.3649C6.69872 21.4286 6.78502 21.4643 6.875 21.4643H8.91071C9.47286 21.4643 9.92857 21.92 9.92857 22.4821C9.92857 23.0443 9.47286 23.5 8.91071 23.5H6.875C6.24511 23.5 5.64102 23.2497 5.19562 22.8043C4.75022 22.3589 4.5 21.7548 4.5 21.125V19.0893C4.5 18.5272 4.95571 18.0714 5.51786 18.0714ZM19.0893 4.5C18.5272 4.5 18.0714 4.95571 18.0714 5.51786C18.0714 6.08 18.5272 6.53571 19.0893 6.53571H21.125C21.215 6.53571 21.3013 6.57146 21.3649 6.63508C21.4286 6.69872 21.4643 6.78502 21.4643 6.875V8.91071C21.4643 9.47286 21.92 9.92857 22.4821 9.92857C23.0443 9.92857 23.5 9.47286 23.5 8.91071V6.875C23.5 6.24511 23.2497 5.64102 22.8043 5.19562C22.3589 4.75022 21.7548 4.5 21.125 4.5H19.0893ZM13.9987 15.0538C11.4214 15.0538 9.22366 16.6788 8.37407 18.9601C8.22294 19.3659 8.54635 19.7681 8.97943 19.7681H19.018C19.4511 19.7681 19.7745 19.3659 19.6233 18.9601C18.7738 16.6788 16.576 15.0538 13.9987 15.0538ZM16.9967 10.5536C16.9967 12.2105 15.6535 13.5537 13.9966 13.5537C12.3398 13.5537 10.9966 12.2105 10.9966 10.5536C10.9966 8.89674 12.3398 7.55357 13.9966 7.55357C15.6535 7.55357 16.9967 8.89674 16.9967 10.5536Z" fill="#F1E902"/>
</g>
<defs>
<clipPath id="clip0_1172_6271">
<rect width="19" height="19" fill="white" transform="translate(4.5 4.5)"/>
</clipPath>
</defs>
</svg>
