<svg width="48" height="48" viewBox="0 0 48 48" fill="none" xmlns="http://www.w3.org/2000/svg">
<rect width="48" height="48" rx="16" fill="#020F1B"/>
<path d="M24.696 30.7486H30.2738C30.3551 30.7486 30.425 30.82 30.425 30.9035C30.425 30.927 30.4131 30.9513 30.4016 30.9749L25.6975 39.3101C25.6741 39.3575 25.6277 39.3815 25.5694 39.3815H14.2633C14.182 39.3815 14.1237 39.3219 14.1237 39.2387C14.1237 39.2148 14.1237 39.1909 14.1352 39.1674L20.6907 27.5575C20.7137 27.5097 20.7605 27.474 20.8189 27.474H32.1249C32.2062 27.474 32.2764 27.5454 32.2764 27.6289C32.2764 27.6524 32.2646 27.6767 32.253 27.7002L30.7393 30.3797C30.7162 30.4271 30.6694 30.4507 30.6111 30.4507H24.8706C24.7892 30.4507 24.6845 30.5224 24.6377 30.6055C24.5912 30.689 24.6147 30.7486 24.696 30.7486ZM24.3004 35.0709C24.3817 35.0709 24.4869 34.9996 24.5333 34.9161C24.5797 34.8447 24.5448 34.7733 24.4631 34.7733H22.8215C22.7402 34.7733 22.6818 34.702 22.6818 34.6185C22.6818 34.5946 22.6818 34.571 22.7052 34.5471L23.6715 32.8322C23.7179 32.7612 23.683 32.6894 23.6016 32.6894C23.5203 32.6894 23.427 32.7612 23.3806 32.8322L22.3208 34.702C22.2977 34.7377 22.2509 34.7733 22.2045 34.7733H20.3879C20.3062 34.7733 20.213 34.8447 20.1665 34.9161C20.1201 34.9996 20.1435 35.0709 20.2249 35.0709H21.8668C21.9482 35.0709 22.0065 35.1427 22.0065 35.2258C22.0065 35.2497 22.0065 35.2733 21.9946 35.2975L21.028 37C20.9816 37.0835 21.005 37.1548 21.0863 37.1548C21.168 37.1548 21.2728 37.0835 21.3192 37L22.3672 35.1427C22.391 35.1066 22.4374 35.0709 22.4953 35.0709H24.3004ZM32.9143 27.5575C32.9377 27.5097 32.9841 27.474 33.0424 27.474H44.3488C44.4302 27.474 44.5 27.5454 44.5 27.6289C44.5 27.6524 44.4885 27.6767 44.4766 27.7002L37.9211 39.3101C37.8981 39.3575 37.8516 39.3815 37.7933 39.3815H26.4869C26.4056 39.3815 26.3353 39.3219 26.3353 39.2387C26.3353 39.2148 26.3472 39.1909 26.3591 39.1674L32.9143 27.5575ZM38.0957 33.5826C38.1774 33.5826 38.2822 33.5112 38.3286 33.4277C38.3754 33.3564 38.3524 33.285 38.2703 33.285H35.8954C35.8252 33.285 35.7557 33.2136 35.7557 33.1301C35.7557 33.1062 35.7669 33.0823 35.7788 33.0588L37.1644 30.6055C37.2112 30.5224 37.1759 30.4507 37.0945 30.4507C37.0247 30.4507 36.9199 30.5224 36.8731 30.6055L35.3947 33.2136C35.3713 33.2489 35.3248 33.285 35.278 33.285H32.7397C32.6583 33.285 32.5536 33.3564 32.5068 33.4277C32.4603 33.5112 32.4834 33.5826 32.5651 33.5826H34.9403C35.0221 33.5826 35.08 33.654 35.08 33.7375C35.08 33.761 35.08 33.7849 35.0685 33.8088L33.671 36.2617C33.6245 36.3448 33.6598 36.4044 33.7412 36.4044C33.8225 36.4044 33.9158 36.3448 33.9622 36.2617L35.4411 33.654C35.4645 33.6183 35.5109 33.5826 35.5693 33.5826H38.0957Z" fill="#FFCF1B"/>
<path d="M18.0933 22.4561H23.2283C23.3096 22.4561 23.3795 22.5278 23.3795 22.611C23.3795 22.6349 23.3679 22.6588 23.3561 22.6827L21.0042 26.8501C20.9808 26.8976 20.934 26.9215 20.8761 26.9215H9.57004C9.48831 26.9215 9.43036 26.8619 9.43036 26.7788C9.43036 26.7549 9.43036 26.7309 9.44188 26.7074L13.3075 19.8605C13.3309 19.8127 13.3773 19.777 13.4357 19.777H19.0246C19.106 19.777 19.2111 19.7174 19.2575 19.6343L19.3389 19.4794L20.7713 16.9548C20.8177 16.8717 20.7943 16.8 20.713 16.8C20.6316 16.8 20.5265 16.8717 20.4801 16.9548L19.1294 19.3363C19.0829 19.4198 18.9897 19.4794 18.9083 19.4794H13.773C13.6916 19.4794 13.6222 19.4198 13.6222 19.3363C13.6222 19.3128 13.6337 19.2889 13.6452 19.2653L15.9974 15.0975C16.0204 15.0497 16.0672 15.014 16.1256 15.014H27.4316C27.5129 15.014 27.5828 15.0854 27.5828 15.1689C27.5828 15.1924 27.5713 15.2167 27.5597 15.2403L23.6941 22.0871C23.6703 22.1346 23.6239 22.1585 23.566 22.1585H17.9767C17.8953 22.1585 17.7902 22.2299 17.7437 22.3134L17.6624 22.4561L16.2303 24.9925C16.1839 25.0756 16.2184 25.1352 16.2883 25.1352C16.3696 25.1352 16.4748 25.0756 16.5212 24.9925L17.8719 22.611C17.9183 22.5278 18.0116 22.4561 18.0933 22.4561ZM28.221 15.0975C28.2444 15.0497 28.2908 15.014 28.3491 15.014H39.6555C39.7369 15.014 39.8067 15.0854 39.8067 15.1689C39.8067 15.1924 39.7952 15.2167 39.7833 15.2403L33.2278 26.8501C33.2044 26.8976 33.158 26.9215 33.1 26.9215H21.7936C21.7123 26.9215 21.6421 26.8619 21.6421 26.7788C21.6421 26.7549 21.6539 26.7309 21.6658 26.7074L28.221 15.0975ZM33.4024 21.1226C33.4841 21.1226 33.5889 21.0513 33.6353 20.9678C33.6821 20.8964 33.6587 20.825 33.577 20.825H31.2017C31.1319 20.825 31.0621 20.7537 31.0621 20.6702C31.0621 20.6463 31.0736 20.6223 31.0855 20.5988L32.4711 18.1456C32.5175 18.0625 32.4826 17.9907 32.4013 17.9907C32.3314 17.9907 32.2267 18.0625 32.1799 18.1456L30.701 20.7537C30.678 20.789 30.6315 20.825 30.5847 20.825H28.0464C27.9647 20.825 27.8603 20.8964 27.8135 20.9678C27.767 21.0513 27.7901 21.1226 27.8714 21.1226H30.247C30.3288 21.1226 30.3867 21.194 30.3867 21.2775C30.3867 21.301 30.3867 21.3249 30.3752 21.3489L28.9777 23.8017C28.9313 23.8848 28.9662 23.9444 29.0479 23.9444C29.1292 23.9444 29.2225 23.8848 29.2689 23.8017L30.7478 21.194C30.7712 21.1583 30.8176 21.1226 30.876 21.1226H33.4024Z" fill="#FFCF1B"/>
<path d="M9.57327 11.634H10.8421C10.8831 11.634 10.9183 11.6692 10.9183 11.7104C10.9183 11.7223 10.9125 11.7341 10.9065 11.7457L9.33828 14.4615C9.32667 14.4851 9.30324 14.4967 9.27382 14.4967H6.58367C6.54263 14.4967 6.50721 14.4675 6.50721 14.4263C6.50721 14.4147 6.51321 14.4027 6.51902 14.391L8.15193 11.5575C8.17535 11.5223 8.15792 11.4871 8.11651 11.4871C8.07547 11.4871 8.02844 11.5223 8.00502 11.5575L6.32507 14.4615C6.31345 14.4851 6.29003 14.4967 6.26642 14.4967H3.57046C3.52942 14.4967 3.5 14.4675 3.5 14.4263C3.5 14.4147 3.5 14.4027 3.50581 14.391L6.81266 8.65957C6.82446 8.63615 6.84808 8.61853 6.87731 8.61853H12.5805C12.6217 8.61853 12.6569 8.65376 12.6569 8.69499C12.6569 8.7066 12.6511 8.71841 12.6451 8.73003L11.0771 11.4519C11.0653 11.4695 11.0416 11.4871 11.0122 11.4871H9.66134C9.62031 11.4871 9.56746 11.5223 9.54385 11.5575C9.52043 11.5988 9.53223 11.634 9.57327 11.634ZM9.05645 9.98816L9.13872 9.84124C9.16214 9.80002 9.15033 9.76479 9.1093 9.76479C9.06826 9.76479 9.01523 9.80002 8.9918 9.84124L8.90954 9.98816C8.88612 10.0292 8.89773 10.0586 8.93896 10.0586C8.98019 10.0586 9.03303 10.0292 9.05645 9.98816ZM16.0507 8.61853H18.7467C18.7877 8.61853 18.8232 8.65376 18.8232 8.69499C18.8232 8.7066 18.8172 8.71841 18.8112 8.73003L15.5045 14.4615C15.4927 14.4851 15.4693 14.4967 15.4399 14.4967H9.73649C9.69545 14.4967 9.66603 14.4675 9.66603 14.4263C9.66603 14.4147 9.66603 14.4027 9.67203 14.391L12.9789 8.65957C12.9907 8.63615 13.0141 8.61853 13.0433 8.61853H15.7395C15.7747 8.61853 15.8099 8.65376 15.8099 8.69499C15.8099 8.7066 15.8039 8.71841 15.7983 8.73003L13.3608 12.9568C13.3372 12.9978 13.3548 13.0272 13.3958 13.0272C13.4369 13.0272 13.4839 12.9978 13.5075 12.9568L15.9919 8.65957C16.0039 8.63615 16.0273 8.61853 16.0507 8.61853ZM23.2037 8.61853H24.9127C24.954 8.61853 24.9892 8.65376 24.9892 8.69499C24.9892 8.7066 24.9832 8.71841 24.9776 8.73003L21.6705 14.4615C21.6589 14.4851 21.6353 14.4967 21.6059 14.4967H17.9291C17.8881 14.4967 17.8587 14.4675 17.8587 14.4263C17.8587 14.4147 17.8587 14.4027 17.8645 14.391L20.302 10.1645C20.3256 10.1235 20.3138 10.088 20.2726 10.088C20.2316 10.088 20.1787 10.1235 20.1551 10.1645L17.6765 14.4615C17.6649 14.4851 17.6413 14.4967 17.6119 14.4967H15.9027C15.8617 14.4967 15.8322 14.4675 15.8322 14.4263C15.8322 14.4147 15.8322 14.4027 15.8381 14.391L19.1449 8.65957C19.1567 8.63615 19.1803 8.61853 19.2096 8.61853H22.8865C22.9275 8.61853 22.9628 8.65376 22.9628 8.69499C22.9628 8.7066 22.9568 8.71841 22.9511 8.73003L20.5136 12.9568C20.49 12.9978 20.5018 13.0272 20.5428 13.0272C20.5841 13.0272 20.6367 12.9978 20.6603 12.9568L23.1391 8.65957C23.1507 8.63615 23.1743 8.61853 23.2037 8.61853Z" fill="#994BFF"/>
<path d="M29.3823 8.65765H31.0915C31.1327 8.65765 31.1677 8.69288 31.1677 8.73411C31.1677 8.74573 31.1619 8.75753 31.1561 8.76915L27.8493 14.5006C27.8375 14.5242 27.814 14.5359 27.7846 14.5359H24.1077C24.0666 14.5359 24.0372 14.5066 24.0372 14.4654C24.0372 14.4538 24.0372 14.4418 24.0432 14.4302L26.4808 10.2036C26.5042 10.1626 26.4926 10.1272 26.4514 10.1272C26.4101 10.1272 26.3573 10.1626 26.3339 10.2036L23.8551 14.5006C23.8435 14.5242 23.82 14.5359 23.7906 14.5359H22.0814C22.0402 14.5359 22.011 14.5066 22.011 14.4654C22.011 14.4538 22.011 14.4418 22.0168 14.4302L25.3235 8.69869C25.3355 8.67527 25.3589 8.65765 25.3883 8.65765H29.0652C29.1063 8.65765 29.1413 8.69288 29.1413 8.73411C29.1413 8.74573 29.1357 8.75753 29.1297 8.76915L26.6922 12.9959C26.6687 13.0369 26.6803 13.0664 26.7216 13.0664C26.7626 13.0664 26.8156 13.0369 26.8391 12.9959L29.3177 8.69869C29.3295 8.67527 29.3529 8.65765 29.3823 8.65765ZM32.2591 12.5844H34.9963C35.0373 12.5844 35.0667 12.6194 35.0667 12.6608C35.0667 12.6725 35.0667 12.6843 35.0549 12.6959L34.0155 14.5006C34.0037 14.5242 33.9801 14.5359 33.9507 14.5359H28.2477C28.2063 14.5359 28.177 14.5066 28.177 14.4654C28.177 14.4538 28.177 14.4418 28.1828 14.4302L31.4899 8.69869C31.5015 8.67527 31.5249 8.65765 31.5543 8.65765H37.2577C37.2987 8.65765 37.334 8.69288 37.334 8.73411C37.334 8.74573 37.3282 8.75753 37.3223 8.76915L36.2767 10.5797C36.2651 10.5975 36.2415 10.6151 36.2181 10.6151H33.3928C33.3518 10.6151 33.3047 10.6503 33.2813 10.6856C33.2577 10.7268 33.2695 10.762 33.3105 10.762H36.0475C36.083 10.762 36.1182 10.7973 36.1182 10.8385C36.1182 10.8503 36.1122 10.8619 36.1064 10.8737L35.2253 12.4021C35.2137 12.4197 35.1902 12.4375 35.1666 12.4375H32.3414C32.3003 12.4375 32.2533 12.4725 32.2297 12.5079C32.2063 12.549 32.2181 12.5844 32.2591 12.5844ZM40.4165 11.6731H41.6851C41.7264 11.6731 41.7616 11.7083 41.7616 11.7496C41.7616 11.7614 41.7556 11.7732 41.75 11.7848L40.1815 14.5006C40.1697 14.5242 40.1463 14.5359 40.1171 14.5359H37.4269C37.3857 14.5359 37.3505 14.5066 37.3505 14.4654C37.3505 14.4538 37.3565 14.4418 37.3621 14.4302L38.995 11.5967C39.0186 11.5614 39.001 11.5262 38.9599 11.5262C38.9187 11.5262 38.8719 11.5614 38.8483 11.5967L37.1685 14.5006C37.1565 14.5242 37.1331 14.5359 37.1097 14.5359H34.4137C34.3725 14.5359 34.3432 14.5066 34.3432 14.4654C34.3432 14.4538 34.3432 14.4418 34.349 14.4302L37.6559 8.69869C37.6677 8.67527 37.6911 8.65765 37.7205 8.65765H43.4239C43.465 8.65765 43.5 8.69288 43.5 8.73411C43.5 8.74573 43.4944 8.75753 43.4884 8.76915L41.9201 11.491C41.9085 11.5086 41.8849 11.5262 41.8555 11.5262H40.5046C40.4634 11.5262 40.4107 11.5614 40.3871 11.5967C40.3637 11.6379 40.3753 11.6731 40.4165 11.6731ZM39.8997 10.0273L39.9818 9.88037C40.0052 9.83914 39.9936 9.80391 39.9525 9.80391C39.9113 9.80391 39.8585 9.83914 39.835 9.88037L39.7528 10.0273C39.7292 10.0683 39.741 10.0977 39.7822 10.0977C39.8232 10.0977 39.8761 10.0683 39.8997 10.0273Z" fill="#994BFF"/>
</svg>
