<svg width="24" height="24" viewBox="0 0 24 24" fill="none" xmlns="http://www.w3.org/2000/svg">
<rect width="24" height="24" rx="4" fill="#FFF8F3"/>
<g clip-path="url(#clip0_1175_1425)">
<path d="M17.4098 14.2217V6.46977C17.3995 5.82114 16.895 5.29907 16.2619 5.29907H8.3652C6.66129 5.32544 5.29199 6.75454 5.29199 8.50531C5.29199 9.09594 5.44643 9.60218 5.68322 10.0452C5.88398 10.4143 6.198 10.7623 6.50686 11.0208C6.59437 11.0945 6.55319 11.0629 6.82087 11.2317C7.19151 11.4637 7.61362 11.5797 7.61362 11.5797L7.60848 16.215C7.61877 16.4365 7.63937 16.6475 7.69599 16.8426C7.87101 17.4965 8.31372 17.9975 8.91601 18.24C9.16825 18.3403 9.45137 18.4088 9.75509 18.4141L16.0611 18.4352C17.3171 18.4352 18.3364 17.391 18.3364 16.099C18.3415 15.3344 17.9709 14.6489 17.4098 14.2217Z" fill="#FFEEDA"/>
<path d="M17.5643 16.1571C17.5386 16.985 16.8746 17.6494 16.0612 17.6494L11.7217 17.6336C12.0665 17.2223 12.2776 16.6897 12.2776 16.1096C12.2776 15.1973 11.7474 14.5698 11.7474 14.5698H16.0663C16.8951 14.5698 17.5695 15.2605 17.5695 16.1096L17.5643 16.1571Z" fill="#EBC28E"/>
<path d="M6.91868 10.3669C6.41935 9.88171 6.0693 9.25417 6.0693 8.51062V8.43152C6.11048 7.16062 7.12974 6.13758 8.37035 6.10067H16.267C16.4729 6.11121 16.6376 6.25887 16.6376 6.47508V13.32C16.8178 13.3516 16.9053 13.378 17.0803 13.4413C17.2193 13.494 17.4098 13.6048 17.4098 13.6048V6.47508C17.3995 5.82645 16.895 5.30438 16.2619 5.30438H8.3652C6.66129 5.33075 5.29199 6.75985 5.29199 8.51062C5.29199 9.52839 5.74499 10.3985 6.48627 11.0102C6.53775 11.0524 6.58408 11.1052 6.71792 11.1052C6.94957 11.1052 7.1143 10.9153 7.104 10.7096C7.09885 10.5356 7.02678 10.4723 6.91868 10.3669Z" fill="#101010"/>
<path d="M16.0609 13.7682H9.86813C9.45117 13.7734 9.11656 14.1163 9.11656 14.5434V15.4557C9.12686 15.8776 9.47691 16.2362 9.89388 16.2362H10.352V15.4557H9.89388V14.5645C9.89388 14.5645 10.0071 14.5645 10.1461 14.5645C10.9286 14.5645 11.5051 15.308 11.5051 16.1043C11.5051 16.811 10.8771 17.7127 9.82695 17.6389C8.89521 17.5756 8.39073 16.7266 8.39073 16.1043V8.37347C8.39073 8.02543 8.11276 7.74066 7.77301 7.74066H7.15527V8.53168H7.61342V16.1096C7.58769 17.6495 8.68415 18.4246 9.82695 18.4246L16.0661 18.4457C17.3221 18.4457 18.3413 17.4016 18.3413 16.1096C18.3413 14.8176 17.317 13.7682 16.0609 13.7682ZM17.564 16.1571C17.5383 16.985 16.8742 17.6495 16.0609 17.6495L11.7213 17.6336C12.0663 17.2223 12.2773 16.6896 12.2773 16.1096C12.2773 15.1973 11.7471 14.5697 11.7471 14.5697H16.0661C16.8948 14.5697 17.5692 15.2606 17.5692 16.1096L17.564 16.1571Z" fill="#101010"/>
<path d="M14.3926 8.67419H9.72363V7.88318H14.3926C14.6037 7.88318 14.7787 8.0572 14.7787 8.27868C14.7787 8.49489 14.6089 8.67419 14.3926 8.67419Z" fill="#101010"/>
<path d="M14.3926 12.3971H9.72363V11.606H14.3926C14.6037 11.606 14.7787 11.7801 14.7787 12.0016C14.7787 12.2178 14.6089 12.3971 14.3926 12.3971Z" fill="#101010"/>
<path d="M15.2163 10.5356H9.72363V9.7446H15.2111C15.4222 9.7446 15.5972 9.91862 15.5972 10.1401C15.6023 10.3563 15.4273 10.5356 15.2163 10.5356Z" fill="#101010"/>
</g>
<defs>
<clipPath id="clip0_1175_1425">
<rect width="13.4167" height="14" fill="white" transform="translate(5.29199 5)"/>
</clipPath>
</defs>
</svg>
