<svg width="24" height="24" viewBox="0 0 24 24" fill="none" xmlns="http://www.w3.org/2000/svg">
<rect width="24" height="24" rx="4" fill="black"/>
<path fill-rule="evenodd" clip-rule="evenodd" d="M9.27924 5.26352H5.11976C4.94302 5.26352 4.7998 5.39756 4.7998 5.56291V9.45502C4.7998 9.62037 4.94302 9.75442 5.11976 9.75442H9.27924C9.45598 9.75442 9.59932 9.62037 9.59932 9.45502V5.56291C9.59932 5.39756 9.45598 5.26352 9.27924 5.26352ZM14.0778 9.75474H9.91819C9.74158 9.75474 9.59824 9.88878 9.59824 10.0541V13.9462C9.59824 14.1116 9.74158 14.2456 9.91819 14.2456H14.0778C14.2545 14.2456 14.3978 14.1116 14.3978 13.9462V10.0541C14.3978 9.88878 14.2545 9.75474 14.0778 9.75474ZM14.7205 5.26353H18.8801C19.0569 5.26353 19.2001 5.39757 19.2001 5.56292V9.45504C19.2001 9.62038 19.0569 9.75443 18.8801 9.75443H14.7205C14.5439 9.75443 14.4006 9.62038 14.4006 9.45504V5.56292C14.4006 5.39757 14.5439 5.26353 14.7205 5.26353ZM9.27944 14.2456H5.11995C4.94322 14.2456 4.8 14.3796 4.8 14.5449V18.4371C4.8 18.6024 4.94322 18.7365 5.11995 18.7365H9.27944C9.45617 18.7365 9.59951 18.6024 9.59951 18.4371V14.5449C9.59951 14.3796 9.45617 14.2456 9.27944 14.2456ZM14.7205 14.2456H18.8801C19.0569 14.2456 19.2001 14.3796 19.2001 14.5449V18.4371C19.2001 18.6024 19.0569 18.7365 18.8801 18.7365H14.7205C14.5439 18.7365 14.4006 18.6024 14.4006 18.4371V14.5449C14.4006 14.3796 14.5439 14.2456 14.7205 14.2456Z" fill="white"/>
</svg>
