<svg width="20" height="20" viewBox="0 0 20 20" fill="none" xmlns="http://www.w3.org/2000/svg">
<path d="M7.60039 1.59999C7.28213 1.59999 6.97691 1.72642 6.75186 1.95147C6.52682 2.17651 6.40039 2.48173 6.40039 2.79999V3.39999C6.40039 3.55912 6.33718 3.71174 6.22465 3.82426C6.11213 3.93678 5.95952 3.99999 5.80039 3.99999C5.64126 3.99999 5.48865 3.93678 5.37613 3.82426C5.2636 3.71174 5.20039 3.55912 5.20039 3.39999V2.79999C5.20039 2.16347 5.45325 1.55302 5.90333 1.10294C6.35342 0.65285 6.96387 0.399994 7.60039 0.399994H8.20039C8.35952 0.399994 8.51213 0.463208 8.62465 0.57573C8.73718 0.688252 8.80039 0.840864 8.80039 0.999994C8.80039 1.15912 8.73718 1.31174 8.62465 1.42426C8.51213 1.53678 8.35952 1.59999 8.20039 1.59999H7.60039ZM6.40039 12.4C6.40039 12.7183 6.52682 13.0235 6.75186 13.2485C6.97691 13.4736 7.28213 13.6 7.60039 13.6H8.20039C8.35952 13.6 8.51213 13.6632 8.62465 13.7757C8.73718 13.8883 8.80039 14.0409 8.80039 14.2C8.80039 14.3591 8.73718 14.5117 8.62465 14.6243C8.51213 14.7368 8.35952 14.8 8.20039 14.8H7.60039C6.96387 14.8 6.35342 14.5471 5.90333 14.097C5.45325 13.647 5.20039 13.0365 5.20039 12.4V11.8C5.20039 11.6409 5.2636 11.4883 5.37613 11.3757C5.48865 11.2632 5.64126 11.2 5.80039 11.2C5.95952 11.2 6.11213 11.2632 6.22465 11.3757C6.33718 11.4883 6.40039 11.6409 6.40039 11.8V12.4ZM6.40039 5.79999C6.40039 5.64086 6.33718 5.48825 6.22465 5.37573C6.11213 5.26321 5.95952 5.19999 5.80039 5.19999C5.64126 5.19999 5.48865 5.26321 5.37613 5.37573C5.2636 5.48825 5.20039 5.64086 5.20039 5.79999V9.39999C5.20039 9.55912 5.2636 9.71174 5.37613 9.82426C5.48865 9.93678 5.64126 9.99999 5.80039 9.99999C5.95952 9.99999 6.11213 9.93678 6.22465 9.82426C6.33718 9.71174 6.40039 9.55912 6.40039 9.39999V5.79999ZM17.2004 1.59999C17.5187 1.59999 17.8239 1.72642 18.0489 1.95147C18.274 2.17651 18.4004 2.48173 18.4004 2.79999V3.39999C18.4004 3.55912 18.4636 3.71174 18.5761 3.82426C18.6886 3.93678 18.8413 3.99999 19.0004 3.99999C19.1595 3.99999 19.3121 3.93678 19.4247 3.82426C19.5372 3.71174 19.6004 3.55912 19.6004 3.39999V2.79999C19.6004 2.16347 19.3475 1.55302 18.8974 1.10294C18.4474 0.65285 17.8369 0.399994 17.2004 0.399994H16.6004C16.4413 0.399994 16.2886 0.463208 16.1761 0.57573C16.0636 0.688252 16.0004 0.840864 16.0004 0.999994C16.0004 1.15912 16.0636 1.31174 16.1761 1.42426C16.2886 1.53678 16.4413 1.59999 16.6004 1.59999H17.2004ZM17.2004 13.6C17.5187 13.6 17.8239 13.4736 18.0489 13.2485C18.274 13.0235 18.4004 12.7183 18.4004 12.4V11.8C18.4004 11.6409 18.4636 11.4883 18.5761 11.3757C18.6886 11.2632 18.8413 11.2 19.0004 11.2C19.1595 11.2 19.3121 11.2632 19.4247 11.3757C19.5372 11.4883 19.6004 11.6409 19.6004 11.8V12.4C19.6004 13.0365 19.3475 13.647 18.8974 14.097C18.4474 14.5471 17.8369 14.8 17.2004 14.8H16.6004C16.4413 14.8 16.2886 14.7368 16.1761 14.6243C16.0636 14.5117 16.0004 14.3591 16.0004 14.2C16.0004 14.0409 16.0636 13.8883 16.1761 13.7757C16.2886 13.6632 16.4413 13.6 16.6004 13.6H17.2004ZM19.0004 5.19999C18.8413 5.19999 18.6886 5.26321 18.5761 5.37573C18.4636 5.48825 18.4004 5.64086 18.4004 5.79999V9.39999C18.4004 9.55912 18.4636 9.71174 18.5761 9.82426C18.6886 9.93678 18.8413 9.99999 19.0004 9.99999C19.1595 9.99999 19.3121 9.93678 19.4247 9.82426C19.5372 9.71174 19.6004 9.55912 19.6004 9.39999V5.79999C19.6004 5.64086 19.5372 5.48825 19.4247 5.37573C19.3121 5.26321 19.1595 5.19999 19.0004 5.19999ZM10.6004 0.399994C10.4413 0.399994 10.2886 0.463208 10.1761 0.57573C10.0636 0.688252 10.0004 0.840864 10.0004 0.999994C10.0004 1.15912 10.0636 1.31174 10.1761 1.42426C10.2886 1.53678 10.4413 1.59999 10.6004 1.59999H14.2004C14.3595 1.59999 14.5121 1.53678 14.6247 1.42426C14.7372 1.31174 14.8004 1.15912 14.8004 0.999994C14.8004 0.840864 14.7372 0.688252 14.6247 0.57573C14.5121 0.463208 14.3595 0.399994 14.2004 0.399994H10.6004ZM10.0004 14.2C10.0004 14.0409 10.0636 13.8883 10.1761 13.7757C10.2886 13.6632 10.4413 13.6 10.6004 13.6H14.2004C14.3595 13.6 14.5121 13.6632 14.6247 13.7757C14.7372 13.8883 14.8004 14.0409 14.8004 14.2C14.8004 14.3591 14.7372 14.5117 14.6247 14.6243C14.5121 14.7368 14.3595 14.8 14.2004 14.8H10.6004C10.4413 14.8 10.2886 14.7368 10.1761 14.6243C10.0636 14.5117 10.0004 14.3591 10.0004 14.2ZM2.80039 5.19999H4.00039V13C4.00039 13.7956 4.31646 14.5587 4.87907 15.1213C5.44168 15.6839 6.20474 16 7.00039 16H14.8004V17.2C14.8004 17.8365 14.5475 18.447 14.0974 18.897C13.6474 19.3471 13.0369 19.6 12.4004 19.6H4.60039C3.48648 19.6 2.41819 19.1575 1.63054 18.3698C0.842889 17.5822 0.400391 16.5139 0.400391 15.4V7.59999C0.400391 6.96347 0.653247 6.35302 1.10333 5.90294C1.55342 5.45285 2.16387 5.19999 2.80039 5.19999Z" fill="white"/>
</svg>
