<svg width="20" height="20" viewBox="0 0 20 20" fill="none" xmlns="http://www.w3.org/2000/svg">
<path fill-rule="evenodd" clip-rule="evenodd" d="M10 3.21429H3.89286C3.5181 3.21429 3.21429 3.5181 3.21429 3.89286V16.1071C3.21429 16.4819 3.5181 16.7857 3.89286 16.7857H16.1071C16.4818 16.7857 16.7857 16.4819 16.7857 16.1071V10C16.7857 9.25047 17.3933 8.64286 18.1429 8.64286C18.8924 8.64286 19.5 9.25047 19.5 10V16.1071C19.5 17.981 17.9809 19.5 16.1071 19.5H3.89286C2.01904 19.5 0.500001 17.981 0.500001 16.1071L0.5 3.89286C0.5 2.01904 2.01904 0.500001 3.89286 0.500001L10 0.500001C10.7495 0.500001 11.3571 1.10761 11.3571 1.85714C11.3571 2.60667 10.7495 3.21429 10 3.21429ZM13.4445 0.918893C13.5495 0.665329 13.797 0.5 14.0714 0.5L18.8214 0.5C19.1961 0.5 19.5 0.803806 19.5 1.17857V5.92857C19.5 6.20303 19.3347 6.45046 19.081 6.55549C18.8275 6.66052 18.5356 6.60246 18.3415 6.40839L16.9263 4.99304L10.9596 10.9597C10.4296 11.4896 9.57036 11.4896 9.04035 10.9597C8.51036 10.4296 8.51036 9.57036 9.04035 9.04035L15.0069 3.07376L13.5916 1.65839C13.3975 1.46432 13.3395 1.17246 13.4445 0.918893Z" fill="#00FFD3"/>
</svg>
