<svg width="15" height="16" viewBox="0 0 15 16" fill="none" xmlns="http://www.w3.org/2000/svg">
<path d="M0 7.04983C0 5.36987 -3.71288e-07 4.52941 0.326792 3.88732C0.614293 3.32382 1.07429 2.86478 1.63779 2.57632C2.27988 2.25049 3.11938 2.25049 4.8003 2.25049H8.70073C10.3797 2.25049 11.2202 2.25049 11.8623 2.57632C12.4267 2.86382 12.8858 3.32382 13.1733 3.88828C13.2662 4.07037 13.3333 4.2697 13.3803 4.4997H10.9998C10.3031 4.4997 9.95423 4.4997 9.66577 4.56295C9.15066 4.67506 8.67862 4.93285 8.30585 5.30562C7.93308 5.67838 7.67529 6.15043 7.56318 6.66554C7.49993 6.954 7.49993 7.30283 7.49993 7.99954C7.49993 8.69721 7.49993 9.04509 7.56318 9.3345C7.67529 9.84962 7.93308 10.3217 8.30585 10.6944C8.67862 11.0672 9.15066 11.325 9.66577 11.4371C9.95423 11.4994 10.3031 11.4994 10.9998 11.4994H13.3803C13.3324 11.7294 13.2653 11.9287 13.1733 12.1118C12.8857 12.6762 12.4268 13.1352 11.8623 13.4228C11.2202 13.7496 10.3797 13.7496 8.69977 13.7496H4.79934C3.11938 13.7496 2.27892 13.7496 1.63779 13.4228C1.07332 13.1352 0.614385 12.6762 0.326792 12.1118C-3.71288e-07 11.4697 0 10.6302 0 8.94925V7.05079V7.04983Z" fill="white"/>
<path fill-rule="evenodd" clip-rule="evenodd" d="M8.5 7.99946C8.5 7.067 8.5 6.60029 8.67346 6.23996C8.84596 5.88346 9.13346 5.595 9.49092 5.42346C9.85125 5.25 10.318 5.25 11.2504 5.25H12.25C13.1834 5.25 13.6491 5.25 14.0095 5.4225C14.3669 5.595 14.6554 5.8825 14.8269 6.23996C15.0004 6.60029 15.0004 7.067 15.0004 7.99946C15.0004 8.93288 15.0004 9.39863 14.8279 9.75897C14.6554 10.1164 14.3669 10.4049 14.0095 10.5764C13.6501 10.7489 13.1834 10.7489 12.2509 10.7489H11.2504C10.317 10.7489 9.85125 10.7489 9.49092 10.5764C9.13369 10.4044 8.84547 10.1162 8.67346 9.75897C8.50096 9.39959 8.5 8.93288 8.5 7.99946ZM11.7507 7.99946C11.7507 8.26469 11.6453 8.51905 11.4578 8.70659C11.2702 8.89413 11.0159 8.99949 10.7507 8.99949C10.4854 8.99949 10.2311 8.89413 10.0435 8.70659C9.85599 8.51905 9.75063 8.26469 9.75063 7.99946C9.75063 7.73424 9.85599 7.47988 10.0435 7.29234C10.2311 7.1048 10.4854 6.99944 10.7507 6.99944C11.0159 6.99944 11.2702 7.1048 11.4578 7.29234C11.6453 7.47988 11.7507 7.73424 11.7507 7.99946Z" fill="white"/>
</svg>
