<svg width="26" height="25" viewBox="0 0 26 25" fill="none" xmlns="http://www.w3.org/2000/svg">
<path fill-rule="evenodd" clip-rule="evenodd" d="M8.53571 1.78571C8.53571 0.799491 7.73621 0 6.75 0C5.76379 0 4.96429 0.799491 4.96429 1.78571V3.57143H3.17857C1.69924 3.57143 0.5 4.77066 0.5 6.25V22.3214C0.5 23.8007 1.69924 25 3.17857 25H22.8214C24.3007 25 25.5 23.8007 25.5 22.3214V6.25C25.5 4.77066 24.3007 3.57143 22.8214 3.57143H21.0359V1.78571C21.0359 0.799491 20.2364 0 19.2502 0C18.264 0 17.4645 0.799491 17.4645 1.78571V3.57143H8.53571V1.78571ZM12.9799 9.15195C13.1467 9.14875 13.3111 9.19227 13.4544 9.27759C13.5978 9.36293 13.7144 9.48666 13.7911 9.63482L13.7944 9.64134L15.1236 12.3152L15.1289 12.3163L18.0734 12.7634C18.2397 12.7861 18.3964 12.8551 18.5254 12.9627C18.6557 13.0715 18.7523 13.2151 18.8041 13.3768C18.8559 13.5385 18.8605 13.7116 18.8175 13.8758C18.7746 14.0391 18.6866 14.187 18.5634 14.3023L16.4911 16.2716C16.5066 16.3076 16.5172 16.3455 16.5227 16.3843L16.9378 19.3054C16.9689 19.4695 16.9535 19.6391 16.8931 19.7952C16.8305 19.9564 16.7226 20.0963 16.5822 20.1973C16.4419 20.2986 16.2752 20.3568 16.1024 20.3652C15.9332 20.3734 15.7653 20.3332 15.6181 20.2496L13.0183 18.8734C13.0103 18.8707 13.0018 18.8693 12.9933 18.8693C12.9847 18.8693 12.9763 18.8707 12.9682 18.8734L10.3685 20.2496C10.2213 20.3332 10.0533 20.3734 9.88414 20.3652C9.71132 20.3568 9.54466 20.2986 9.40432 20.1973C9.26398 20.0963 9.156 19.9564 9.0935 19.7952C9.03223 19.6371 9.01721 19.465 9.05004 19.2987L9.5428 16.373C9.54546 16.3573 9.54896 16.3416 9.55329 16.3263L7.42048 14.2842L7.41152 14.2754C7.2962 14.1586 7.21527 14.0123 7.17759 13.8526C7.13991 13.6928 7.14693 13.5258 7.19787 13.3697C7.24882 13.2137 7.34173 13.0747 7.46643 12.968C7.59113 12.8613 7.74279 12.7909 7.9048 12.7647L7.91146 12.7636L10.8624 12.3311L10.8646 12.3274L12.1903 9.66043C12.2614 9.51171 12.3722 9.38548 12.5106 9.29575C12.6505 9.20496 12.8131 9.15516 12.9799 9.15195Z" />
</svg>
