<svg width="22" height="23" viewBox="0 0 22 23" fill="none" xmlns="http://www.w3.org/2000/svg">
<path fill-rule="evenodd" clip-rule="evenodd" d="M1.57143 0.5C0.703552 0.5 0 1.20355 0 2.07143L0 11.5C0 12.3679 0.703552 13.0714 1.57143 13.0714H7.85714C8.72503 13.0714 9.42857 12.3679 9.42857 11.5V2.07143C9.42857 1.20355 8.72503 0.5 7.85714 0.5H1.57143ZM12.5714 2.07143C12.5714 1.20355 13.275 0.5 14.1429 0.5H20.4286C21.2965 0.5 22 1.20355 22 2.07143V5.23C22 6.09787 21.2965 6.80143 20.4286 6.80143H14.1429C13.275 6.80143 12.5714 6.09787 12.5714 5.23V2.07143ZM12.5714 11.5C12.5714 10.6321 13.275 9.92857 14.1429 9.92857H20.4286C21.2965 9.92857 22 10.6321 22 11.5V20.9286C22 21.7965 21.2965 22.5 20.4286 22.5H14.1429C13.275 22.5 12.5714 21.7965 12.5714 20.9286V11.5ZM0 17.77C0 16.9021 0.703552 16.1986 1.57143 16.1986H7.85714C8.72503 16.1986 9.42857 16.9021 9.42857 17.77V20.9286C9.42857 21.7965 8.72503 22.5 7.85714 22.5H1.57143C0.703552 22.5 0 21.7965 0 20.9286L0 17.77Z" />
</svg>
