<svg width="26" height="23" viewBox="0 0 26 23" fill="none" xmlns="http://www.w3.org/2000/svg">
<path fill-rule="evenodd" clip-rule="evenodd" d="M14.7856 5.69644C14.7856 8.6551 12.3871 11.0536 9.42848 11.0536C6.46982 11.0536 4.07134 8.6551 4.07134 5.69644C4.07134 2.73778 6.46982 0.339294 9.42848 0.339294C12.3871 0.339294 14.7856 2.73778 14.7856 5.69644ZM9.42848 12.8392C4.49737 12.8392 0.499908 16.8367 0.499908 21.7678C0.499908 22.2608 0.899655 22.6607 1.39277 22.6607H17.4642C17.9573 22.6607 18.3571 22.2608 18.3571 21.7678C18.3571 16.8367 14.3596 12.8392 9.42848 12.8392ZM24.6072 22.6607H20.4599C20.5442 22.3778 20.5894 22.078 20.5894 21.7678C20.5894 18.123 18.8422 14.8863 16.1398 12.8495C16.2828 12.8427 16.4267 12.8392 16.5715 12.8392C21.5026 12.8392 25.5001 16.8367 25.5001 21.7678C25.5001 22.2608 25.1003 22.6607 24.6072 22.6607ZM16.5715 11.0536C16.0327 11.0536 15.5125 10.974 15.0219 10.826C16.2614 9.47528 17.0179 7.67421 17.0179 5.69644C17.0179 3.71867 16.2614 1.9176 15.0219 0.566812C15.5125 0.41883 16.0327 0.339294 16.5715 0.339294C19.5301 0.339294 21.9287 2.73778 21.9287 5.69644C21.9287 8.6551 19.5301 11.0536 16.5715 11.0536Z" />
</svg>
