<svg width="30" height="32" viewBox="0 0 30 32" fill="none" xmlns="http://www.w3.org/2000/svg">
<path fill-rule="evenodd" clip-rule="evenodd" d="M29.7715 22.1521C29.7715 28.947 23.6167 31.9998 15 31.9998C6.3833 31.9998 0.228516 28.947 0.228516 22.2013C0.228516 15.744 3.05136 12.0716 8.69703 8.74953C12.4217 11.5585 17.5937 11.5555 21.3152 8.74037C26.9527 12.0277 29.7715 15.6995 29.7715 22.1521ZM18.9844 6.87559L21.8874 2.33911C22.0129 2.09824 22.075 1.82943 22.0677 1.55797C22.0606 1.28651 21.9845 1.02133 21.8467 0.78739C21.7088 0.553454 21.5136 0.358457 21.2795 0.22076C21.0455 0.0830613 20.7803 0.00719029 20.5088 0.000289062H10.0703C9.78071 -0.00521481 9.49509 0.0679696 9.24384 0.21204C8.9926 0.35611 8.78517 0.565664 8.64366 0.818359C8.50215 1.07105 8.43187 1.35741 8.44032 1.64691C8.44876 1.93641 8.53562 2.21818 8.69162 2.46219L11.0849 6.91749C13.5108 8.37047 16.5707 8.3565 18.9844 6.87559Z" fill="#FFC700"/>
</svg>
