<svg width="32" height="32" viewBox="0 0 32 32" fill="none" xmlns="http://www.w3.org/2000/svg">
<g filter="url(#filter0_i_791_4173)">
<path fill-rule="evenodd" clip-rule="evenodd" d="M15.9998 0.632812C15.5462 0.632812 15.1021 0.762568 14.72 1.00676C14.3426 1.24784 14.0412 1.59051 13.8501 1.9952L10.2214 9.32112C10.2143 9.33552 10.2074 9.35006 10.2009 9.36476C10.1993 9.36839 10.1968 9.37157 10.1935 9.37392C10.1903 9.37628 10.1865 9.37776 10.1826 9.37819C10.1686 9.37973 10.1547 9.38153 10.1409 9.38359L2.15099 10.5673C1.70938 10.6102 1.28826 10.7759 0.935539 11.0461C0.570575 11.3257 0.294502 11.7051 0.140764 12.1383C-0.0129735 12.5716 -0.0377806 13.0401 0.0693487 13.4872C0.176063 13.9325 0.409135 14.3375 0.740486 14.6535L6.58912 20.2965L6.60244 20.3092C6.61079 20.317 6.61707 20.3268 6.62068 20.3376C6.62429 20.3485 6.62514 20.36 6.62313 20.3713L6.62185 20.3788L5.22816 28.5351C5.15159 28.9771 5.20007 29.4338 5.36877 29.8494C5.53771 30.2658 5.82013 30.6263 6.18386 30.8901C6.54761 31.1536 6.97805 31.3099 7.42624 31.341C7.87353 31.3721 8.32057 31.2773 8.71668 31.0674L8.71908 31.0661L15.9179 27.2615C15.9437 27.2503 15.9716 27.2443 15.9998 27.2443C16.0281 27.2443 16.056 27.2503 16.0818 27.2615L23.2805 31.0661C23.6768 31.2766 24.1257 31.3723 24.5733 31.341C25.0215 31.3099 25.4519 31.1536 25.8158 30.8901C26.1794 30.6263 26.462 30.2658 26.6309 29.8494C26.7996 29.4338 26.8482 28.9794 26.7719 28.5376L26.7714 28.5351L25.3778 20.3787L25.3765 20.3713C25.3744 20.36 25.3753 20.3485 25.379 20.3376C25.3824 20.3268 25.3888 20.317 25.3971 20.3092L25.4105 20.2965L31.2592 14.6535C31.5904 14.3375 31.8236 13.9325 31.9303 13.4872C32.0373 13.0401 32.0126 12.5716 31.8588 12.1383C31.7052 11.7051 31.429 11.3257 31.064 11.0461C30.7113 10.7759 30.2903 10.6102 29.8487 10.5673L21.8587 9.38359C21.8449 9.38153 21.831 9.37973 21.817 9.37819C21.8131 9.37776 21.8093 9.37628 21.8061 9.37392C21.8028 9.37157 21.8003 9.36839 21.7987 9.36476C21.7922 9.35006 21.7853 9.33552 21.7782 9.32112L18.1495 1.99517C17.9584 1.59049 17.657 1.24783 17.2797 1.00676C16.8974 0.762568 16.4533 0.632812 15.9998 0.632812Z" fill="#43A3FF"/>
</g>
<defs>
<filter id="filter0_i_791_4173" x="0.00390625" y="0.632812" width="31.9922" height="36.7141" filterUnits="userSpaceOnUse" color-interpolation-filters="sRGB">
<feFlood flood-opacity="0" result="BackgroundImageFix"/>
<feBlend mode="normal" in="SourceGraphic" in2="BackgroundImageFix" result="shape"/>
<feColorMatrix in="SourceAlpha" type="matrix" values="0 0 0 0 0 0 0 0 0 0 0 0 0 0 0 0 0 0 127 0" result="hardAlpha"/>
<feOffset dy="6"/>
<feGaussianBlur stdDeviation="4"/>
<feComposite in2="hardAlpha" operator="arithmetic" k2="-1" k3="1"/>
<feColorMatrix type="matrix" values="0 0 0 0 0 0 0 0 0 0.510638 0 0 0 0 1 0 0 0 1 0"/>
<feBlend mode="normal" in2="shape" result="effect1_innerShadow_791_4173"/>
</filter>
</defs>
</svg>
